<?xml version="1.0" encoding="UTF-8" standalone="no"?>
<!-- Created with Inkscape (http://www.inkscape.org/) -->

<svg
   xmlns:dc="http://purl.org/dc/elements/1.1/"
   xmlns:cc="http://creativecommons.org/ns#"
   xmlns:rdf="http://www.w3.org/1999/02/22-rdf-syntax-ns#"
   xmlns:svg="http://www.w3.org/2000/svg"
   xmlns="http://www.w3.org/2000/svg"
   xmlns:sodipodi="http://sodipodi.sourceforge.net/DTD/sodipodi-0.dtd"
   xmlns:inkscape="http://www.inkscape.org/namespaces/inkscape"
   width="1024"
   height="198"
   id="svg3763"
   version="1.1"
   inkscape:version="0.48.2 r9819"
   sodipodi:docname="helloworld.svg">
  <defs
     id="defs3765">
    <inkscape:perspective
       sodipodi:type="inkscape:persp3d"
       inkscape:vp_x="0 : 384 : 1"
       inkscape:vp_y="0 : 1000 : 0"
       inkscape:vp_z="1024 : 384 : 1"
       inkscape:persp3d-origin="512 : 256 : 1"
       id="perspective3007" />
    <filter
       inkscape:collect="always"
       id="filter4388"
       color-interpolation-filters="sRGB">
      <feGaussianBlur
         inkscape:collect="always"
         stdDeviation="16.5"
         id="feGaussianBlur4390" />
    </filter>
  </defs>
  <sodipodi:namedview
     id="base"
     pagecolor="#ffffff"
     bordercolor="#666666"
     borderopacity="1.0"
     inkscape:pageopacity="0.0"
     inkscape:pageshadow="2"
     inkscape:zoom="1"
     inkscape:cx="533.47929"
     inkscape:cy="78.672132"
     inkscape:document-units="px"
     inkscape:current-layer="layer1"
     showgrid="false"
     inkscape:window-width="1645"
     inkscape:window-height="1006"
     inkscape:window-x="35"
     inkscape:window-y="0"
     inkscape:window-maximized="1"
     fit-margin-top="0"
     fit-margin-left="0"
     fit-margin-right="0"
     fit-margin-bottom="0" />
  <metadata
     id="metadata3768">
    <rdf:RDF>
      <cc:Work
         rdf:about="">
        <dc:format>image/svg+xml</dc:format>
        <dc:type
           rdf:resource="http://purl.org/dc/dcmitype/StillImage" />
        <dc:title></dc:title>
      </cc:Work>
    </rdf:RDF>
  </metadata>
  <g
     inkscape:label="Layer 1"
     inkscape:groupmode="layer"
     id="layer1"
     transform="translate(0,-575.36218)">
    <path
       style="opacity:0.11682243;fill:#666666;fill-opacity:1;stroke:none"
       d="m 0,587.36218 1012,0 0,186 -1012,0 z"
       id="rect3005"
       inkscape:connector-curvature="0" />
    <path
       style="fill:#ffb380;fill-opacity:1;stroke:none"
       d="m 0,575.36218 1024,0 0,186 -1024,0 z"
       id="rect3003"
       inkscape:connector-curvature="0" />
    <g
       style="font-size:40px;font-style:normal;font-weight:normal;line-height:125%;letter-spacing:0px;word-spacing:0px;fill:#ffffff;fill-opacity:1;stroke:none;font-family:Sans"
       id="text2997">
      <path
         d="m 190.75175,663.30806 c 1.44,0 2.664,-1.08001 2.88,-2.448 l 3.672,-20.664 18.504,-22.464 c 0.36,-0.432 0.576,-0.936 0.576,-1.584 0,-1.368 -1.08,-2.448 -2.448,-2.448 -0.72,0 -1.44,0.288 -2.016,1.008 l -16.272,20.592 -9.288,-20.232 c -0.36,-0.792 -1.08,-1.368 -2.16,-1.368 -1.368,0 -2.448,1.08 -2.448,2.448 0,0.36 0.072,0.72 0.216,1.008 l 10.44,23.04 -3.672,20.664 c -0.216,1.36799 0.576,2.448 2.016,2.448"
         style="font-size:72px;font-style:italic;font-variant:normal;font-stretch:normal;text-align:center;text-anchor:middle;fill:#ffffff;font-family:Bariol;-inkscape-font-specification:Bariol Italic"
         id="path3778"
         inkscape:connector-curvature="0" />
      <path
         d="m 233.80438,663.74006 c 16.84798,0 27.576,-11.95202 27.576,-31.968 0,-12.88799 -6.84002,-18.504 -18.72,-18.504 -16.84799,0 -27.576,11.95202 -27.576,31.968 0,12.88798 6.84001,18.504 18.72,18.504 m 8.064,-46.008 c 9.21599,0 14.4,4.32001 14.4,14.688 0,16.63198 -8.06402,26.856 -21.672,26.856 -9.216,0 -14.4,-4.32001 -14.4,-14.688 0,-16.63199 8.06401,-26.856 21.672,-26.856"
         style="font-size:72px;font-style:italic;font-variant:normal;font-stretch:normal;text-align:center;text-anchor:middle;fill:#ffffff;font-family:Bariol;-inkscape-font-specification:Bariol Italic"
         id="path3780"
         inkscape:connector-curvature="0" />
      <path
         d="m 282.1805,663.74006 c 14.25599,0 18.216,-7.84801 19.584,-15.768 l 5.616,-31.824 c 0.216,-1.368 -0.576,-2.448 -2.016,-2.448 -1.44,0 -2.664,1.08 -2.88,2.448 l -5.616,31.824 c -1.008,5.68799 -4.03201,11.16 -13.896,11.16 -8.13599,0 -10.368,-3.67201 -10.368,-8.136 0,-0.792 0.072,-1.80001 0.288,-3.024 l 5.616,-31.824 c 0.216,-1.368 -0.576,-2.448 -2.016,-2.448 -1.44,0 -2.664,1.08 -2.88,2.448 l -5.616,31.824 c -0.216,1.36799 -0.36,2.736 -0.36,4.032 0,6.33599 4.03201,11.736 14.544,11.736"
         style="font-size:72px;font-style:italic;font-variant:normal;font-stretch:normal;text-align:center;text-anchor:middle;fill:#ffffff;font-family:Bariol;-inkscape-font-specification:Bariol Italic"
         id="path3782"
         inkscape:connector-curvature="0" />
      <path
         d="m 319.19188,613.70006 c -1.44,0 -2.232,0.792 -2.376,1.944 l -1.512,12.384 c -0.072,0.79199 0.288,1.224 1.152,1.224 0.86399,0 1.368,-0.43201 1.584,-1.224 l 2.808,-12.384 c 0.288,-1.152 -0.21601,-1.944 -1.656,-1.944"
         style="font-size:72px;font-style:italic;font-variant:normal;font-stretch:normal;text-align:center;text-anchor:middle;fill:#ffffff;font-family:Bariol;-inkscape-font-specification:Bariol Italic"
         id="path3784"
         inkscape:connector-curvature="0" />
      <path
         d="m 335.02963,618.74006 11.808,0 c 4.53599,0 7.344,3.24 7.344,7.704 0,5.90399 -4.03201,10.872 -10.44,10.872 l -12.024,0 3.312,-18.576 m -4.104,23.04 7.704,0 10.872,20.376 c 0.432,0.79199 1.368,1.152 2.088,1.152 1.36799,0 2.448,-1.08001 2.448,-2.448 0,-0.432 -0.144,-0.936 -0.36,-1.296 l -10.008,-17.784 c 9.28799,0 15.552,-7.56001 15.552,-15.912 0,-6.552 -4.46401,-11.592 -11.592,-11.592 l -14.328,0 c -1.368,0 -2.664,1.08 -2.88,2.448 l -7.776,44.136 c -0.216,1.36799 0.72,2.448 2.016,2.448 1.43999,0 2.664,-1.08001 2.88,-2.448 l 3.384,-19.08"
         style="font-size:72px;font-style:italic;font-variant:normal;font-stretch:normal;text-align:center;text-anchor:middle;fill:#ffffff;font-family:Bariol;-inkscape-font-specification:Bariol Italic"
         id="path3786"
         inkscape:connector-curvature="0" />
      <path
         d="m 388.08463,662.73206 c 1.36799,0 2.664,-1.15201 2.664,-2.52 0,-1.08 -0.79201,-1.944 -1.872,-1.944 l -21.456,0 3.168,-17.712 15.84,0 c 1.29599,0 2.664,-1.15201 2.664,-2.52 0,-1.08 -0.79201,-1.944 -1.872,-1.944 l -15.84,0 3.024,-17.352 20.664,0 c 1.36799,0 2.664,-1.15201 2.664,-2.52 0,-1.08 -0.79201,-1.944 -1.872,-1.944 l -23.112,0 c -1.368,0 -2.664,1.08 -2.88,2.448 l -7.704,43.56 c -0.216,1.36799 0.648,2.448 2.016,2.448 l 23.904,0"
         style="font-size:72px;font-style:italic;font-variant:normal;font-stretch:normal;text-align:center;text-anchor:middle;fill:#ffffff;font-family:Bariol;-inkscape-font-specification:Bariol Italic"
         id="path3788"
         inkscape:connector-curvature="0" />
      <path
         d="m 436.6025,659.27606 c -9.21599,0 -14.4,-3.96002 -14.4,-14.688 0,-16.99199 8.13601,-26.856 21.6,-26.856 5.4,0 9.216,1.872 11.88,6.048 0.504,0.79199 1.224,0.936 1.872,0.936 1.296,0 2.304,-1.00801 2.304,-2.304 0,-0.36 -0.072,-0.792 -0.288,-1.152 -2.592,-4.68 -7.99201,-7.992 -15.12,-7.992 -16.84798,0 -27.36,11.59202 -27.36,31.968 0,12.81598 6.98401,18.504 18.72,18.504 8.92799,0 15.048,-3.88801 18.72,-7.704 0.792,-0.792 1.152,-1.58401 1.296,-2.592 l 2.16,-12.6 c 0.216,-1.224 -0.648,-2.232 -1.8,-2.232 l -14.544,0 c -1.44,0 -2.664,1.152 -2.664,2.52 0,1.07999 0.72,1.944 1.872,1.944 l 12.024,0 -1.872,10.44 c -2.88,2.95199 -7.70401,5.76 -14.4,5.76"
         style="font-size:72px;font-style:italic;font-variant:normal;font-stretch:normal;text-align:center;text-anchor:middle;fill:#ffffff;font-family:Bariol;-inkscape-font-specification:Bariol Italic"
         id="path3790"
         inkscape:connector-curvature="0" />
      <path
         d="m 483.55438,663.74006 c 16.84798,0 27.576,-11.95202 27.576,-31.968 0,-12.88799 -6.84002,-18.504 -18.72,-18.504 -16.84799,0 -27.576,11.95202 -27.576,31.968 0,12.88798 6.84001,18.504 18.72,18.504 m 8.064,-46.008 c 9.21599,0 14.4,4.32001 14.4,14.688 0,16.63198 -8.06402,26.856 -21.672,26.856 -9.216,0 -14.4,-4.32001 -14.4,-14.688 0,-16.63199 8.06401,-26.856 21.672,-26.856"
         style="font-size:72px;font-style:italic;font-variant:normal;font-stretch:normal;text-align:center;text-anchor:middle;fill:#ffffff;font-family:Bariol;-inkscape-font-specification:Bariol Italic"
         id="path3792"
         inkscape:connector-curvature="0" />
      <path
         d="m 528.2585,616.14806 c 0.216,-1.296 -0.576,-2.448 -2.016,-2.448 -1.44,0 -2.664,1.152 -2.88,2.448 l -7.92,44.712 c -0.216,1.29599 0.576,2.448 2.016,2.448 1.44,0 2.664,-1.15201 2.88,-2.448 l 7.92,-44.712"
         style="font-size:72px;font-style:italic;font-variant:normal;font-stretch:normal;text-align:center;text-anchor:middle;fill:#ffffff;font-family:Bariol;-inkscape-font-specification:Bariol Italic"
         id="path3794"
         inkscape:connector-curvature="0" />
      <path
         d="m 571.71163,613.70006 c -1.44,0 -2.592,1.08 -2.808,2.376 l -6.552,38.088 -18.648,-39.312 c -0.288,-0.576 -0.86401,-1.152 -1.944,-1.152 -1.44,0 -2.448,1.08 -2.664,2.376 l -7.92,44.856 c -0.216,1.29599 0.576,2.376 1.944,2.376 1.51199,0 2.592,-1.08001 2.808,-2.376 l 6.768,-38.088 18.36,39.456 c 0.36,0.648 0.936,1.008 1.8,1.008 1.36799,0 2.664,-1.08001 2.88,-2.448 l 7.92,-44.784 c 0.216,-1.296 -0.64801,-2.376 -1.944,-2.376"
         style="font-size:72px;font-style:italic;font-variant:normal;font-stretch:normal;text-align:center;text-anchor:middle;fill:#ffffff;font-family:Bariol;-inkscape-font-specification:Bariol Italic"
         id="path3796"
         inkscape:connector-curvature="0" />
      <path
         d="m 596.63375,659.27606 c -9.21599,0 -14.4,-3.96002 -14.4,-14.688 0,-16.99199 8.13601,-26.856 21.6,-26.856 5.4,0 9.216,1.872 11.88,6.048 0.504,0.79199 1.224,0.936 1.872,0.936 1.296,0 2.304,-1.00801 2.304,-2.304 0,-0.36 -0.072,-0.792 -0.288,-1.152 -2.592,-4.68 -7.99201,-7.992 -15.12,-7.992 -16.84798,0 -27.36,11.59202 -27.36,31.968 0,12.81598 6.98401,18.504 18.72,18.504 8.92799,0 15.048,-3.88801 18.72,-7.704 0.792,-0.792 1.152,-1.58401 1.296,-2.592 l 2.16,-12.6 c 0.216,-1.224 -0.648,-2.232 -1.8,-2.232 l -14.544,0 c -1.44,0 -2.664,1.152 -2.664,2.52 0,1.07999 0.72,1.944 1.872,1.944 l 12.024,0 -1.872,10.44 c -2.88,2.95199 -7.70401,5.76 -14.4,5.76"
         style="font-size:72px;font-style:italic;font-variant:normal;font-stretch:normal;text-align:center;text-anchor:middle;fill:#ffffff;font-family:Bariol;-inkscape-font-specification:Bariol Italic"
         id="path3798"
         inkscape:connector-curvature="0" />
      <path
         d="m 659.94988,618.88406 -7.416,41.976 c -0.216,1.36799 0.648,2.448 2.016,2.448 1.36799,0 2.664,-1.08001 2.88,-2.448 l 7.416,-41.976 12.816,0 c 1.43999,0 2.736,-1.22401 2.736,-2.664 0,-1.08 -0.79201,-1.944 -1.944,-1.944 l -30.6,0 c -1.44,0 -2.736,1.224 -2.736,2.664 0,1.07999 0.792,1.944 1.944,1.944 l 12.888,0"
         style="font-size:72px;font-style:italic;font-variant:normal;font-stretch:normal;text-align:center;text-anchor:middle;fill:#ffffff;font-family:Bariol;-inkscape-font-specification:Bariol Italic"
         id="path3800"
         inkscape:connector-curvature="0" />
      <path
         d="m 697.30438,663.74006 c 16.84798,0 27.576,-11.95202 27.576,-31.968 0,-12.88799 -6.84002,-18.504 -18.72,-18.504 -16.84799,0 -27.576,11.95202 -27.576,31.968 0,12.88798 6.84001,18.504 18.72,18.504 m 8.064,-46.008 c 9.21599,0 14.4,4.32001 14.4,14.688 0,16.63198 -8.06402,26.856 -21.672,26.856 -9.216,0 -14.4,-4.32001 -14.4,-14.688 0,-16.63199 8.06401,-26.856 21.672,-26.856"
         style="font-size:72px;font-style:italic;font-variant:normal;font-stretch:normal;text-align:center;text-anchor:middle;fill:#ffffff;font-family:Bariol;-inkscape-font-specification:Bariol Italic"
         id="path3802"
         inkscape:connector-curvature="0" />
      <path
         d="m 758.73275,618.74006 7.704,0 c 8.99999,0 14.4,3.81601 14.4,14.472 0,16.77598 -8.13601,25.056 -21.384,25.056 l -7.704,0 6.984,-39.528 m -1.656,-4.464 c -1.368,0 -2.664,1.08 -2.88,2.448 l -7.704,43.56 c -0.216,1.36799 0.648,2.448 2.016,2.448 l 10.152,0 c 16.99198,0 27.288,-10.58402 27.288,-30.312 0,-13.03199 -7.05601,-18.144 -18.72,-18.144 l -10.152,0"
         style="font-size:72px;font-style:italic;font-variant:normal;font-stretch:normal;text-align:center;text-anchor:middle;fill:#ffffff;font-family:Bariol;-inkscape-font-specification:Bariol Italic"
         id="path3804"
         inkscape:connector-curvature="0" />
      <path
         d="m 802.89913,616.14806 c 0.216,-1.296 -0.57601,-2.448 -2.016,-2.448 -1.44,0 -2.664,1.152 -2.88,2.448 l -7.92,44.712 c -0.216,1.29599 0.576,2.448 2.016,2.448 1.43999,0 2.664,-1.15201 2.88,-2.448 l 7.92,-44.712"
         style="font-size:72px;font-style:italic;font-variant:normal;font-stretch:normal;text-align:center;text-anchor:middle;fill:#ffffff;font-family:Bariol;-inkscape-font-specification:Bariol Italic"
         id="path3806"
         inkscape:connector-curvature="0" />
      <path
         d="m 832.60025,662.73206 c 1.368,0 2.664,-1.15201 2.664,-2.52 0,-1.08 -0.792,-1.944 -1.872,-1.944 l -21.456,0 3.168,-17.712 15.84,0 c 1.296,0 2.664,-1.15201 2.664,-2.52 0,-1.08 -0.792,-1.944 -1.872,-1.944 l -15.84,0 3.024,-17.352 20.664,0 c 1.368,0 2.664,-1.15201 2.664,-2.52 0,-1.08 -0.792,-1.944 -1.872,-1.944 l -23.112,0 c -1.368,0 -2.664,1.08 -2.88,2.448 l -7.704,43.56 c -0.216,1.36799 0.648,2.448 2.016,2.448 l 23.904,0"
         style="font-size:72px;font-style:italic;font-variant:normal;font-stretch:normal;text-align:center;text-anchor:middle;fill:#ffffff;font-family:Bariol;-inkscape-font-specification:Bariol Italic"
         id="path3808"
         inkscape:connector-curvature="0" />
      <path
         d="m 366.54506,703.96825 c 2.336,0 3.776,1.344 3.776,3.52 l 0,0.864 -4.512,0 c -3.45599,0 -5.6,1.696 -5.6,4.512 0,2.944 2.14401,4.576 5.536,4.576 1.92,0 3.776,-0.8 4.576,-2.304 l 0,1.152 c 0,0.544 0.448,0.992 0.992,0.992 0.544,0 0.992,-0.448 0.992,-0.992 l 0,-8.8 c 0,-3.264 -2.048,-5.44 -5.76,-5.44 -2.68799,0 -4.416,1.12 -5.312,2.528 -0.096,0.16 -0.16,0.32 -0.16,0.544 0,0.512 0.416,0.928 0.928,0.928 0.288,0 0.512,-0.096 0.832,-0.448 0.992,-1.12 2.016,-1.632 3.712,-1.632 m -0.608,11.616 c -2.49599,0 -3.648,-1.056 -3.648,-2.72 0,-1.856 1.44001,-2.72 3.52,-2.72 l 4.512,0 0,1.344 c 0,2.72 -2.144,4.096 -4.384,4.096"
         style="font-size:32px;font-variant:normal;font-stretch:normal;text-align:center;text-anchor:middle;fill:#ffffff;font-family:Bariol;-inkscape-font-specification:Bariol"
         id="path3810"
         inkscape:connector-curvature="0" />
      <path
         d="m 389.01156,702.04825 c -3.71199,0 -5.888,2.112 -5.888,5.376 0,1.376 0.384,2.528 1.152,3.488 -0.768,0.512 -1.28,1.28 -1.28,2.24 0,1.248 0.8,2.208 1.984,2.592 -1.504,0.608 -2.432,1.76 -2.432,3.232 0,3.52 3.52001,4.48 6.816,4.48 3.872,0 6.88,-1.28 6.88,-4.608 0,-3.008 -2.496,-4.352 -5.6,-4.352 l -3.296,0 c -1.91999,0 -2.368,-0.672 -2.368,-1.344 0,-0.512 0.224,-0.864 0.576,-1.152 0.896,0.512 2.08,0.8 3.456,0.8 3.712,0 5.888,-2.112 5.888,-5.376 0,-1.376 -0.416,-2.56 -1.152,-3.456 0.224,-0.512 0.576,-0.992 1.536,-0.992 0.512,0 0.928,-0.416 0.928,-0.928 0,-0.512 -0.416,-0.928 -0.928,-0.928 -1.6,0 -2.304,0.736 -2.848,1.728 -0.896,-0.512 -2.112,-0.8 -3.424,-0.8 m 0,8.896 c -2.46399,0 -3.808,-1.408 -3.808,-3.52 0,-2.112 1.34401,-3.52 3.808,-3.52 2.464,0 3.808,1.408 3.808,3.52 0,2.112 -1.344,3.52 -3.808,3.52 m 5.152,7.904 c 0,2.08 -2.24,2.816 -4.768,2.816 -2.52799,0 -4.768,-0.736 -4.768,-2.688 0,-1.28 0.83201,-2.24 2.688,-2.56 l 3.328,0 c 2.08,0 3.52,0.672 3.52,2.432"
         style="font-size:32px;font-variant:normal;font-stretch:normal;text-align:center;text-anchor:middle;fill:#ffffff;font-family:Bariol;-inkscape-font-specification:Bariol"
         id="path3812"
         inkscape:connector-curvature="0" />
      <path
         d="m 404.42006,703.96825 c 2.336,0 3.776,1.344 3.776,3.52 l 0,0.864 -4.512,0 c -3.45599,0 -5.6,1.696 -5.6,4.512 0,2.944 2.14401,4.576 5.536,4.576 1.92,0 3.776,-0.8 4.576,-2.304 l 0,1.152 c 0,0.544 0.448,0.992 0.992,0.992 0.544,0 0.992,-0.448 0.992,-0.992 l 0,-8.8 c 0,-3.264 -2.048,-5.44 -5.76,-5.44 -2.68799,0 -4.416,1.12 -5.312,2.528 -0.096,0.16 -0.16,0.32 -0.16,0.544 0,0.512 0.416,0.928 0.928,0.928 0.288,0 0.512,-0.096 0.832,-0.448 0.992,-1.12 2.016,-1.632 3.712,-1.632 m -0.608,11.616 c -2.49599,0 -3.648,-1.056 -3.648,-2.72 0,-1.856 1.44001,-2.72 3.52,-2.72 l 4.512,0 0,1.344 c 0,2.72 -2.144,4.096 -4.384,4.096"
         style="font-size:32px;font-variant:normal;font-stretch:normal;text-align:center;text-anchor:middle;fill:#ffffff;font-family:Bariol;-inkscape-font-specification:Bariol"
         id="path3814"
         inkscape:connector-curvature="0" />
      <path
         d="m 429.98156,702.04825 c -2.46399,0 -3.872,0.992 -4.672,2.24 -0.768,-1.28 -2.464,-2.24 -5.088,-2.24 -2.07999,0 -3.616,1.056 -4.16,2.24 l 0,-1.024 c 0,-0.576 -0.448,-1.024 -1.024,-1.024 -0.576,0 -1.024,0.448 -1.024,1.024 l 0,12.992 c 0,0.576 0.448,1.024 1.024,1.024 0.576,0 1.024,-0.448 1.024,-1.024 l 0,-7.904 c 0,-2.688 0.96001,-4.48 3.936,-4.48 3.136,0 3.936,1.728 3.936,4.256 l 0,8.128 c 0,0.576 0.448,1.024 1.024,1.024 0.576,0 1.024,-0.448 1.024,-1.024 l 0,-8.544 c 0,-2.368 1.24801,-3.84 4,-3.84 3.104,0 4,1.728 4,4.256 l 0,8.128 c 0,0.576 0.448,1.024 1.024,1.024 0.576,0 1.024,-0.448 1.024,-1.024 l 0,-8.544 c 0,-2.72 -1.12,-5.664 -6.048,-5.664"
         style="font-size:32px;font-variant:normal;font-stretch:normal;text-align:center;text-anchor:middle;fill:#ffffff;font-family:Bariol;-inkscape-font-specification:Bariol"
         id="path3816"
         inkscape:connector-curvature="0" />
      <path
         d="m 438.92856,709.72825 c 0,5.376 2.65601,7.712 6.912,7.712 2.848,0 4.512,-1.312 4.992,-1.792 0.192,-0.192 0.352,-0.384 0.352,-0.736 0,-0.512 -0.416,-0.928 -0.928,-0.928 -0.256,0 -0.384,0.064 -0.576,0.192 -0.896,0.672 -1.984,1.376 -3.84,1.376 -3.00799,0 -4.832,-2.048 -4.832,-5.216 l 9.344,0 c 1.28,0 1.28,-1.12 1.28,-2.048 0,-2.176 -0.992,-6.24 -6.112,-6.24 -4.15999,0 -6.592,2.75201 -6.592,7.68 m 10.688,-1.184 -8.608,0 c 0.192,-2.848 1.72801,-4.64 4.512,-4.64 3.296,0 4.096,2.336 4.096,4.64"
         style="font-size:32px;font-variant:normal;font-stretch:normal;text-align:center;text-anchor:middle;fill:#ffffff;font-family:Bariol;-inkscape-font-specification:Bariol"
         id="path3818"
         inkscape:connector-curvature="0" />
      <path
         d="m 467.79506,703.96825 c 2.336,0 3.776,1.344 3.776,3.52 l 0,0.864 -4.512,0 c -3.45599,0 -5.6,1.696 -5.6,4.512 0,2.944 2.14401,4.576 5.536,4.576 1.92,0 3.776,-0.8 4.576,-2.304 l 0,1.152 c 0,0.544 0.448,0.992 0.992,0.992 0.544,0 0.992,-0.448 0.992,-0.992 l 0,-8.8 c 0,-3.264 -2.048,-5.44 -5.76,-5.44 -2.68799,0 -4.416,1.12 -5.312,2.528 -0.096,0.16 -0.16,0.32 -0.16,0.544 0,0.512 0.416,0.928 0.928,0.928 0.288,0 0.512,-0.096 0.832,-0.448 0.992,-1.12 2.016,-1.632 3.712,-1.632 m -0.608,11.616 c -2.49599,0 -3.648,-1.056 -3.648,-2.72 0,-1.856 1.44001,-2.72 3.52,-2.72 l 4.512,0 0,1.344 c 0,2.72 -2.144,4.096 -4.384,4.096"
         style="font-size:32px;font-variant:normal;font-stretch:normal;text-align:center;text-anchor:middle;fill:#ffffff;font-family:Bariol;-inkscape-font-specification:Bariol"
         id="path3820"
         inkscape:connector-curvature="0" />
      <path
         d="m 479.43656,706.72025 c 0,0 1.21601,-2.816 4.224,-2.816 2.912,0 4.512,1.88801 4.512,5.824 0,4 -1.568,5.856 -4.512,5.856 -2.46399,0 -4.224,-1.408 -4.224,-4.448 l 0,-4.416 m 4.352,-4.672 c -2.04799,0 -3.616,1.056 -4.352,2.08 l 0,-8.864 c 0,-0.576 -0.448,-1.024 -1.024,-1.024 -0.576,0 -1.024,0.448 -1.024,1.024 l 0,15.872 c 0,4.224 2.62401,6.304 6.272,6.304 4.128,0 6.56,-2.464 6.56,-7.712 0,-5.24799 -2.304,-7.68 -6.432,-7.68"
         style="font-size:32px;font-variant:normal;font-stretch:normal;text-align:center;text-anchor:middle;fill:#ffffff;font-family:Bariol;-inkscape-font-specification:Bariol"
         id="path3822"
         inkscape:connector-curvature="0" />
      <path
         d="m 499.21106,702.04825 c -4.12799,0 -6.72,2.43201 -6.72,7.68 0,5.248 2.59201,7.712 6.72,7.712 4.16,0 6.72,-2.464 6.72,-7.712 0,-5.24799 -2.56,-7.68 -6.72,-7.68 m 0,13.536 c -2.94399,0 -4.64,-1.76 -4.64,-5.856 0,-4.03199 1.69601,-5.824 4.64,-5.824 2.944,0 4.64,1.79201 4.64,5.824 0,4.096 -1.696,5.856 -4.64,5.856"
         style="font-size:32px;font-variant:normal;font-stretch:normal;text-align:center;text-anchor:middle;fill:#ffffff;font-family:Bariol;-inkscape-font-specification:Bariol"
         id="path3824"
         inkscape:connector-curvature="0" />
      <path
         d="m 509.84256,702.24025 c -0.576,0 -1.024,0.448 -1.024,1.024 l 0,8.352 c 0,3.04 1.02401,5.824 5.952,5.824 4.96,0 5.952,-2.784 5.952,-5.824 l 0,-8.352 c 0,-0.576 -0.448,-1.024 -0.992,-1.024 -0.576,0 -1.056,0.448 -1.056,1.024 l 0,8.352 c 0,2.08 -0.672,3.872 -3.904,3.872 -3.23199,0 -3.904,-1.792 -3.904,-3.872 l 0,-8.352 c 0,-0.576 -0.48,-1.024 -1.024,-1.024"
         style="font-size:32px;font-variant:normal;font-stretch:normal;text-align:center;text-anchor:middle;fill:#ffffff;font-family:Bariol;-inkscape-font-specification:Bariol"
         id="path3826"
         inkscape:connector-curvature="0" />
      <path
         d="m 525.37606,702.49625 -1.248,0 c -0.544,0 -0.96,0.416 -0.96,0.96 0,0.544 0.416,0.96 0.96,0.96 l 1.248,0 0,8.832 c 0,2.336 1.37601,4.032 3.904,4.032 0.544,0 0.992,-0.416 0.992,-0.96 0,-0.544 -0.448,-0.96 -0.992,-0.96 -1.088,0 -1.856,-0.736 -1.856,-2.112 l 0,-8.832 2.08,0 c 0.544,0 0.96,-0.416 0.96,-0.96 0,-0.544 -0.416,-0.96 -0.96,-0.96 l -2.08,0 0,-3.36 c 0,-0.544 -0.448,-1.024 -1.024,-1.024 -0.544,0 -1.024,0.48 -1.024,1.024 l 0,3.36"
         style="font-size:32px;font-variant:normal;font-stretch:normal;text-align:center;text-anchor:middle;fill:#ffffff;font-family:Bariol;-inkscape-font-specification:Bariol"
         id="path3828"
         inkscape:connector-curvature="0" />
      <path
         d="m 541.93856,702.49625 -1.248,0 c -0.544,0 -0.96,0.416 -0.96,0.96 0,0.544 0.416,0.96 0.96,0.96 l 1.248,0 0,8.832 c 0,2.336 1.37601,4.032 3.904,4.032 0.544,0 0.992,-0.416 0.992,-0.96 0,-0.544 -0.448,-0.96 -0.992,-0.96 -1.088,0 -1.856,-0.736 -1.856,-2.112 l 0,-8.832 2.08,0 c 0.544,0 0.96,-0.416 0.96,-0.96 0,-0.544 -0.416,-0.96 -0.96,-0.96 l -2.08,0 0,-3.36 c 0,-0.544 -0.448,-1.024 -1.024,-1.024 -0.544,0 -1.024,0.48 -1.024,1.024 l 0,3.36"
         style="font-size:32px;font-variant:normal;font-stretch:normal;text-align:center;text-anchor:middle;fill:#ffffff;font-family:Bariol;-inkscape-font-specification:Bariol"
         id="path3830"
         inkscape:connector-curvature="0" />
      <path
         d="m 556.38006,702.04825 c -2.07999,0 -3.648,1.024 -4.256,2.24 l 0,-9.024 c 0,-0.576 -0.448,-1.024 -1.024,-1.024 -0.576,0 -1.024,0.448 -1.024,1.024 l 0,20.992 c 0,0.576 0.448,1.024 1.024,1.024 0.576,0 1.024,-0.448 1.024,-1.024 l 0,-7.904 c 0,-2.56 1.08801,-4.48 4.256,-4.48 3.104,0 3.84,1.728 3.84,4.256 l 0,8.128 c 0,0.576 0.448,1.024 1.024,1.024 0.576,0 1.024,-0.448 1.024,-1.024 l 0,-8.544 c 0,-2.72 -0.96,-5.664 -5.888,-5.664"
         style="font-size:32px;font-variant:normal;font-stretch:normal;text-align:center;text-anchor:middle;fill:#ffffff;font-family:Bariol;-inkscape-font-specification:Bariol"
         id="path3832"
         inkscape:connector-curvature="0" />
      <path
         d="m 565.17856,709.72825 c 0,5.376 2.65601,7.712 6.912,7.712 2.848,0 4.512,-1.312 4.992,-1.792 0.192,-0.192 0.352,-0.384 0.352,-0.736 0,-0.512 -0.416,-0.928 -0.928,-0.928 -0.256,0 -0.384,0.064 -0.576,0.192 -0.896,0.672 -1.984,1.376 -3.84,1.376 -3.00799,0 -4.832,-2.048 -4.832,-5.216 l 9.344,0 c 1.28,0 1.28,-1.12 1.28,-2.048 0,-2.176 -0.992,-6.24 -6.112,-6.24 -4.15999,0 -6.592,2.75201 -6.592,7.68 m 10.688,-1.184 -8.608,0 c 0.192,-2.848 1.72801,-4.64 4.512,-4.64 3.296,0 4.096,2.336 4.096,4.64"
         style="font-size:32px;font-variant:normal;font-stretch:normal;text-align:center;text-anchor:middle;fill:#ffffff;font-family:Bariol;-inkscape-font-specification:Bariol"
         id="path3834"
         inkscape:connector-curvature="0" />
      <path
         d="m 604.66906,702.04825 c -2.46399,0 -3.872,0.992 -4.672,2.24 -0.768,-1.28 -2.464,-2.24 -5.088,-2.24 -2.07999,0 -3.616,1.056 -4.16,2.24 l 0,-1.024 c 0,-0.576 -0.448,-1.024 -1.024,-1.024 -0.576,0 -1.024,0.448 -1.024,1.024 l 0,12.992 c 0,0.576 0.448,1.024 1.024,1.024 0.576,0 1.024,-0.448 1.024,-1.024 l 0,-7.904 c 0,-2.688 0.96001,-4.48 3.936,-4.48 3.136,0 3.936,1.728 3.936,4.256 l 0,8.128 c 0,0.576 0.448,1.024 1.024,1.024 0.576,0 1.024,-0.448 1.024,-1.024 l 0,-8.544 c 0,-2.368 1.24801,-3.84 4,-3.84 3.104,0 4,1.728 4,4.256 l 0,8.128 c 0,0.576 0.448,1.024 1.024,1.024 0.576,0 1.024,-0.448 1.024,-1.024 l 0,-8.544 c 0,-2.72 -1.12,-5.664 -6.048,-5.664"
         style="font-size:32px;font-variant:normal;font-stretch:normal;text-align:center;text-anchor:middle;fill:#ffffff;font-family:Bariol;-inkscape-font-specification:Bariol"
         id="path3836"
         inkscape:connector-curvature="0" />
      <path
         d="m 616.59206,703.26425 c 0,-0.576 -0.448,-1.024 -1.024,-1.024 -0.576,0 -1.024,0.448 -1.024,1.024 l 0,12.992 c 0,0.576 0.448,1.024 1.024,1.024 0.576,0 1.024,-0.448 1.024,-1.024 l 0,-12.992 m -1.024,-4.032 c 0.768,0 1.216,-0.448 1.216,-1.216 0,-0.928 -0.448,-1.28 -1.216,-1.28 -0.768,0 -1.216,0.352 -1.216,1.28 0,0.768 0.448,1.216 1.216,1.216"
         style="font-size:32px;font-variant:normal;font-stretch:normal;text-align:center;text-anchor:middle;fill:#ffffff;font-family:Bariol;-inkscape-font-specification:Bariol"
         id="path3838"
         inkscape:connector-curvature="0" />
      <path
         d="m 627.06756,702.04825 c -2.07999,0 -3.648,1.024 -4.256,2.24 l 0,-1.024 c 0,-0.576 -0.448,-1.024 -1.024,-1.024 -0.576,0 -1.024,0.448 -1.024,1.024 l 0,12.992 c 0,0.576 0.448,1.024 1.024,1.024 0.576,0 1.024,-0.448 1.024,-1.024 l 0,-7.904 c 0,-2.56 1.08801,-4.48 4.256,-4.48 3.104,0 3.84,1.728 3.84,4.256 l 0,8.128 c 0,0.576 0.448,1.024 1.024,1.024 0.576,0 1.024,-0.448 1.024,-1.024 l 0,-8.544 c 0,-2.72 -0.96,-5.664 -5.888,-5.664"
         style="font-size:32px;font-variant:normal;font-stretch:normal;text-align:center;text-anchor:middle;fill:#ffffff;font-family:Bariol;-inkscape-font-specification:Bariol"
         id="path3840"
         inkscape:connector-curvature="0" />
      <path
         d="m 646.65006,711.13625 c 0,3.04 -1.76,4.448 -4.224,4.448 -2.94399,0 -4.512,-1.856 -4.512,-5.856 0,-3.93599 1.60001,-5.824 4.512,-5.824 3.008,0 4.224,2.816 4.224,2.816 l 0,4.416 m -4.352,-9.088 c -4.12799,0 -6.432,2.43201 -6.432,7.68 0,5.248 2.43201,7.712 6.56,7.712 3.648,0 6.272,-2.08 6.272,-6.304 l 0,-15.872 c 0,-0.576 -0.448,-1.024 -1.024,-1.024 -0.576,0 -1.024,0.448 -1.024,1.024 l 0,8.864 c -0.736,-1.024 -2.304,-2.08 -4.352,-2.08"
         style="font-size:32px;font-variant:normal;font-stretch:normal;text-align:center;text-anchor:middle;fill:#ffffff;font-family:Bariol;-inkscape-font-specification:Bariol"
         id="path3842"
         inkscape:connector-curvature="0" />
    </g>
  </g>
</svg>
