<?xml version="1.0" encoding="UTF-8" standalone="no"?>
<!-- Created with Inkscape (http://www.inkscape.org/) -->

<svg
   xmlns:dc="http://purl.org/dc/elements/1.1/"
   xmlns:cc="http://creativecommons.org/ns#"
   xmlns:rdf="http://www.w3.org/1999/02/22-rdf-syntax-ns#"
   xmlns:svg="http://www.w3.org/2000/svg"
   xmlns="http://www.w3.org/2000/svg"
   xmlns:sodipodi="http://sodipodi.sourceforge.net/DTD/sodipodi-0.dtd"
   xmlns:inkscape="http://www.inkscape.org/namespaces/inkscape"
   width="1024"
   height="768"
   id="svg3763"
   version="1.1"
   inkscape:version="0.48.2 r9819"
   sodipodi:docname="helloworld.svg">
  <defs
     id="defs3765">
    <filter
       inkscape:collect="always"
       id="filter4388">
      <feGaussianBlur
         inkscape:collect="always"
         stdDeviation="16.5"
         id="feGaussianBlur4390" />
    </filter>
  </defs>
  <sodipodi:namedview
     id="base"
     pagecolor="#ffffff"
     bordercolor="#666666"
     borderopacity="1.0"
     inkscape:pageopacity="0.0"
     inkscape:pageshadow="2"
     inkscape:zoom="0.98994949"
     inkscape:cx="430.66709"
     inkscape:cy="317.26603"
     inkscape:document-units="px"
     inkscape:current-layer="layer1"
     showgrid="false"
     inkscape:window-width="1351"
     inkscape:window-height="884"
     inkscape:window-x="121"
     inkscape:window-y="42"
     inkscape:window-maximized="0" />
  <metadata
     id="metadata3768">
    <rdf:RDF>
      <cc:Work
         rdf:about="">
        <dc:format>image/svg+xml</dc:format>
        <dc:type
           rdf:resource="http://purl.org/dc/dcmitype/StillImage" />
        <dc:title></dc:title>
      </cc:Work>
    </rdf:RDF>
  </metadata>
  <g
     inkscape:label="Layer 1"
     inkscape:groupmode="layer"
     id="layer1"
     transform="translate(0,-284.36218)">
    <path
       transform="matrix(0.78181818,0,0,0.78181818,274.10391,268.90498)"
       style="opacity:0.35514018;fill:#000000;fill-opacity:1;stroke:none;filter:url(#filter4388)"
       d="m 539.99998,510.93362 c 0,130.18141 -105.53287,235.71428 -235.71427,235.71428 -130.18141,0 -235.714284,-105.53287 -235.714284,-235.71428 0,-130.1814 105.532874,-235.71427 235.714284,-235.71427 130.1814,0 235.71427,105.53287 235.71427,235.71427 z"
       id="path3816" />
    <path
       transform="matrix(0.78181818,0,0,0.78181818,274.10391,268.90498)"
       style="fill:#ffb380;fill-opacity:1;stroke:none"
       d="m 539.99998,510.93362 c 0,130.18141 -105.53287,235.71428 -235.71427,235.71428 -130.18141,0 -235.714284,-105.53287 -235.714284,-235.71428 0,-130.1814 105.532874,-235.71427 235.714284,-235.71427 130.1814,0 235.71427,105.53287 235.71427,235.71427 z"
       id="path3771" />
    <g
       style="font-size:40px;font-style:normal;font-weight:normal;line-height:100%;letter-spacing:0px;word-spacing:0px;fill:#ffffff;fill-opacity:1;stroke:none;font-family:Sans"
       id="text3773"
       transform="matrix(0.78181818,0,0,0.78181818,280.99239,293.28612)">
      <path
         inkscape:connector-curvature="0"
         d="m 223.39498,412.86045 0,41.472 c 0,2.59199 2.16,4.896 4.896,4.896 2.736,0 4.896,-2.30401 4.896,-4.896 l 0,-89.424 c 0,-2.592 -2.16,-4.896 -4.896,-4.896 -2.736,0 -4.896,2.304 -4.896,4.896 l 0,39.024 -50.112,0 0,-39.024 c 0,-2.592 -2.16,-4.896 -4.896,-4.896 -2.736,0 -4.896,2.304 -4.896,4.896 l 0,89.424 c 0,2.59199 2.16,4.896 4.896,4.896 2.736,0 4.896,-2.30401 4.896,-4.896 l 0,-41.472 50.112,0"
         style="font-size:144px;font-variant:normal;font-stretch:normal;text-align:center;line-height:100%;writing-mode:lr-tb;text-anchor:middle;fill:#ffffff;font-family:Bariol;-inkscape-font-specification:Bariol"
         id="path3780" />
      <path
         inkscape:connector-curvature="0"
         d="m 249.82348,425.24445 c 0,24.19197 11.95202,34.704 31.104,34.704 12.81598,0 20.304,-5.90401 22.464,-8.064 0.864,-0.864 1.584,-1.72801 1.584,-3.312 0,-2.304 -1.872,-4.176 -4.176,-4.176 -1.152,0 -1.728,0.288 -2.592,0.864 -4.032,3.02399 -8.92801,6.192 -17.28,6.192 -13.53599,0 -21.744,-9.21602 -21.744,-23.472 l 42.048,0 c 5.75999,0 5.76,-5.04001 5.76,-9.216 0,-9.79199 -4.46403,-28.08 -27.504,-28.08 -18.71998,0 -29.664,12.38402 -29.664,34.56 m 48.096,-5.328 -38.736,0 c 0.864,-12.81599 7.77601,-20.88 20.304,-20.88 14.83198,0 18.432,10.51201 18.432,20.88"
         style="font-size:144px;font-variant:normal;font-stretch:normal;text-align:center;line-height:100%;writing-mode:lr-tb;text-anchor:middle;fill:#ffffff;font-family:Bariol;-inkscape-font-specification:Bariol"
         id="path3782" />
      <path
         inkscape:connector-curvature="0"
         d="m 325.97023,355.54845 c -2.448,0 -4.608,2.16 -4.608,4.608 l 0,82.224 c 0,11.08799 5.32801,16.848 14.976,16.848 2.304,0 4.32,-1.87201 4.32,-4.32 0,-2.448 -2.016,-4.32 -4.32,-4.32 -3.888,0 -5.76,-2.44801 -5.76,-8.208 l 0,-82.224 c 0,-2.448 -2.016,-4.608 -4.608,-4.608"
         style="font-size:144px;font-variant:normal;font-stretch:normal;text-align:center;line-height:100%;writing-mode:lr-tb;text-anchor:middle;fill:#ffffff;font-family:Bariol;-inkscape-font-specification:Bariol"
         id="path3784" />
      <path
         inkscape:connector-curvature="0"
         d="m 357.47023,355.54845 c -2.448,0 -4.608,2.16 -4.608,4.608 l 0,82.224 c 0,11.08799 5.32801,16.848 14.976,16.848 2.304,0 4.32,-1.87201 4.32,-4.32 0,-2.448 -2.016,-4.32 -4.32,-4.32 -3.888,0 -5.76,-2.44801 -5.76,-8.208 l 0,-82.224 c 0,-2.448 -2.016,-4.608 -4.608,-4.608"
         style="font-size:144px;font-variant:normal;font-stretch:normal;text-align:center;line-height:100%;writing-mode:lr-tb;text-anchor:middle;fill:#ffffff;font-family:Bariol;-inkscape-font-specification:Bariol"
         id="path3786" />
      <path
         inkscape:connector-curvature="0"
         d="m 410.28223,390.68445 c -18.57598,0 -30.24,10.94402 -30.24,34.56 0,23.61597 11.66402,34.704 30.24,34.704 18.71998,0 30.24,-11.08803 30.24,-34.704 0,-23.61598 -11.52002,-34.56 -30.24,-34.56 m 0,60.912 c -13.24799,0 -20.88,-7.92002 -20.88,-26.352 0,-18.14399 7.63201,-26.208 20.88,-26.208 13.24798,0 20.88,8.06401 20.88,26.208 0,18.43198 -7.63202,26.352 -20.88,26.352"
         style="font-size:144px;font-variant:normal;font-stretch:normal;text-align:center;line-height:100%;writing-mode:lr-tb;text-anchor:middle;fill:#ffffff;font-family:Bariol;-inkscape-font-specification:Bariol"
         id="path3788" />
      <path
         inkscape:connector-curvature="0"
         d="m 213.04048,599.48445 c 0.576,2.30399 2.448,3.744 4.752,3.744 2.16,0 4.176,-1.44001 4.752,-3.6 l 25.488,-88.992 c 0.144,-0.576 0.288,-1.152 0.288,-1.728 0,-2.736 -2.16,-4.896 -4.896,-4.896 -2.736,0 -4.32,2.016 -4.752,3.6 l -21.024,74.448 -20.592,-74.448 c -0.576,-2.304 -2.592,-3.6 -4.752,-3.6 -2.16,0 -4.176,1.296 -4.752,3.6 l -20.592,74.448 -21.024,-74.448 c -0.432,-1.584 -2.016,-3.6 -4.752,-3.6 -2.736,0 -4.896,2.16 -4.896,4.896 0,0.576 0.144,1.152 0.288,1.728 l 25.488,88.992 c 0.576,2.15999 2.592,3.6 4.752,3.6 2.304,0 4.176,-1.44001 4.752,-3.744 l 20.736,-73.296 20.736,73.296"
         style="font-size:144px;font-variant:normal;font-stretch:normal;text-align:center;line-height:100%;writing-mode:lr-tb;text-anchor:middle;fill:#ffffff;font-family:Bariol;-inkscape-font-specification:Bariol"
         id="path3790" />
      <path
         inkscape:connector-curvature="0"
         d="m 281.46973,534.68445 c -18.57598,0 -30.24,10.94402 -30.24,34.56 0,23.61597 11.66402,34.704 30.24,34.704 18.71998,0 30.24,-11.08803 30.24,-34.704 0,-23.61598 -11.52002,-34.56 -30.24,-34.56 m 0,60.912 c -13.24799,0 -20.88,-7.92002 -20.88,-26.352 0,-18.14399 7.63201,-26.208 20.88,-26.208 13.24798,0 20.88,8.06401 20.88,26.208 0,18.43198 -7.63202,26.352 -20.88,26.352"
         style="font-size:144px;font-variant:normal;font-stretch:normal;text-align:center;line-height:100%;writing-mode:lr-tb;text-anchor:middle;fill:#ffffff;font-family:Bariol;-inkscape-font-specification:Bariol"
         id="path3792" />
      <path
         inkscape:connector-curvature="0"
         d="m 335.35948,540.15645 c 0,-2.592 -2.016,-4.608 -4.608,-4.608 -2.592,0 -4.608,2.016 -4.608,4.608 l 0,58.464 c 0,2.59199 2.016,4.608 4.608,4.608 2.592,0 4.608,-2.01601 4.608,-4.608 l 0,-32.256 c 0,-13.24799 6.76801,-22.464 20.016,-22.464 2.448,0 4.464,-2.01601 4.464,-4.464 0,-2.448 -2.016,-4.464 -4.464,-4.464 -9.93599,0 -17.13601,4.896 -20.016,11.52 l 0,-6.336"
         style="font-size:144px;font-variant:normal;font-stretch:normal;text-align:center;line-height:100%;writing-mode:lr-tb;text-anchor:middle;fill:#ffffff;font-family:Bariol;-inkscape-font-specification:Bariol"
         id="path3794" />
      <path
         inkscape:connector-curvature="0"
         d="m 374.34523,499.54845 c -2.448,0 -4.608,2.16 -4.608,4.608 l 0,82.224 c 0,11.08799 5.32801,16.848 14.976,16.848 2.304,0 4.32,-1.87201 4.32,-4.32 0,-2.448 -2.016,-4.32 -4.32,-4.32 -3.888,0 -5.76,-2.44801 -5.76,-8.208 l 0,-82.224 c 0,-2.448 -2.016,-4.608 -4.608,-4.608"
         style="font-size:144px;font-variant:normal;font-stretch:normal;text-align:center;line-height:100%;writing-mode:lr-tb;text-anchor:middle;fill:#ffffff;font-family:Bariol;-inkscape-font-specification:Bariol"
         id="path3796" />
      <path
         inkscape:connector-curvature="0"
         d="m 445.44523,575.58045 c 0,13.67998 -7.92001,20.016 -19.008,20.016 -13.24799,0 -20.304,-8.35202 -20.304,-26.352 0,-17.71199 7.20001,-26.208 20.304,-26.208 13.53598,0 19.008,12.672 19.008,12.672 l 0,19.872 m -19.584,-40.896 c -18.57598,0 -28.944,10.94402 -28.944,34.56 0,23.61597 10.94402,34.704 29.52,34.704 16.41598,0 28.224,-9.36002 28.224,-28.368 l 0,-71.424 c 0,-2.592 -2.016,-4.608 -4.608,-4.608 -2.592,0 -4.608,2.016 -4.608,4.608 l 0,39.888 c -3.312,-4.608 -10.36801,-9.36 -19.584,-9.36"
         style="font-size:144px;font-variant:normal;font-stretch:normal;text-align:center;line-height:100%;writing-mode:lr-tb;text-anchor:middle;fill:#ffffff;font-family:Bariol;-inkscape-font-specification:Bariol"
         id="path3798" />
    </g>
  </g>
</svg>
