<?xml version="1.0" encoding="UTF-8" standalone="no"?>
<!-- Created with Inkscape (http://www.inkscape.org/) -->

<svg
   xmlns:dc="http://purl.org/dc/elements/1.1/"
   xmlns:cc="http://creativecommons.org/ns#"
   xmlns:rdf="http://www.w3.org/1999/02/22-rdf-syntax-ns#"
   xmlns:svg="http://www.w3.org/2000/svg"
   xmlns="http://www.w3.org/2000/svg"
   xmlns:sodipodi="http://sodipodi.sourceforge.net/DTD/sodipodi-0.dtd"
   xmlns:inkscape="http://www.inkscape.org/namespaces/inkscape"
   width="362.99994"
   height="111.65625"
   id="svg2"
   version="1.1"
   inkscape:version="0.48.2 r9819"
   sodipodi:docname="pyramid.svg">
  <defs
     id="defs4" />
  <sodipodi:namedview
     id="base"
     pagecolor="#ffffff"
     bordercolor="#666666"
     borderopacity="1.0"
     inkscape:pageopacity="0.0"
     inkscape:pageshadow="2"
     inkscape:zoom="1"
     inkscape:cx="158.1224"
     inkscape:cy="397.21843"
     inkscape:document-units="px"
     inkscape:current-layer="layer1"
     showgrid="false"
     fit-margin-top="0"
     fit-margin-left="0"
     fit-margin-right="0"
     fit-margin-bottom="0"
     inkscape:window-width="1645"
     inkscape:window-height="1006"
     inkscape:window-x="134"
     inkscape:window-y="0"
     inkscape:window-maximized="0" />
  <metadata
     id="metadata7">
    <rdf:RDF>
      <cc:Work
         rdf:about="">
        <dc:format>image/svg+xml</dc:format>
        <dc:type
           rdf:resource="http://purl.org/dc/dcmitype/StillImage" />
        <dc:title></dc:title>
      </cc:Work>
    </rdf:RDF>
  </metadata>
  <g
     inkscape:label="Layer 1"
     inkscape:groupmode="layer"
     id="layer1"
     transform="translate(-330.50002,-611.1299)">
    <path
       inkscape:connector-curvature="0"
       id="path4778"
       d="m 353.15627,615.12995 c -12.55363,0 -22.65625,10.10262 -22.65625,22.65625 l 0,27.6875 c 0,12.55363 10.10262,22.65625 22.65625,22.65625 l 126.21875,0 c 13.36791,2.6222 26.90073,15.11266 30.15625,29.5 0.007,0.0322 0.0241,0.0616 0.0312,0.0937 l 0.4375,5.0625 c 0.026,-0.56987 0.0651,-1.12098 0.125,-1.6875 0.0599,0.56652 0.099,1.11763 0.125,1.6875 l 0.25,-4.125 c 2.82837,-14.82634 16.7125,-27.85876 30.40625,-30.53125 l 125.9375,0 c 12.55363,0 22.65625,-10.10262 22.65625,-22.65625 l 0,-27.6875 c 0,-12.55363 -10.10262,-22.65625 -22.65625,-22.65625 l -313.6875,0 z"
       style="fill:#4d4d4d;fill-opacity:1;stroke:none" />
    <path
       style="fill:#1a1a1a;fill-opacity:1;stroke:none"
       d="m 357.15627,611.12995 c -12.55363,0 -22.65625,10.10262 -22.65625,22.65625 l 0,27.6875 c 0,12.55363 10.10262,22.65625 22.65625,22.65625 l 126.21875,0 c 13.36791,2.6222 26.90073,15.11266 30.15625,29.5 0.007,0.0322 0.0241,0.0616 0.0312,0.0937 l 0.4375,5.0625 c 0.026,-0.56987 0.0651,-1.12098 0.125,-1.6875 0.0599,0.56652 0.099,1.11763 0.125,1.6875 l 0.25,-4.125 c 2.82837,-14.82634 16.7125,-27.85876 30.40625,-30.53125 l 125.9375,0 c 12.55363,0 22.65625,-10.10262 22.65625,-22.65625 l 0,-27.6875 c 0,-12.55363 -10.10262,-22.65625 -22.65625,-22.65625 l -313.6875,0 z"
       id="rect4768"
       inkscape:connector-curvature="0" />
    <g
       style="font-size:40px;font-style:normal;font-weight:normal;line-height:125%;letter-spacing:0px;word-spacing:0px;fill:#ffffff;fill-opacity:1;stroke:none;font-family:Sans"
       id="text4780">
      <path
         d="m 442.78221,635.24958 6.2,0 c 3.2,0 5.28,1.8 5.28,5.32 0,3.47999 -2.04,5.36 -5.28,5.36 l -6.2,0 0,-10.68 m 0,13.16 6.6,0 c 4.36,0 7.64,-2.60001 7.64,-7.84 0,-5.32 -3.36,-7.8 -7.64,-7.8 l -7.96,0 c -0.76,0 -1.36,0.6 -1.36,1.36 l 0,24.52 c 0,0.75999 0.6,1.36 1.36,1.36 0.76,0 1.36,-0.60001 1.36,-1.36 l 0,-10.24"
         style="font-variant:normal;font-stretch:normal;fill:#ffffff;font-family:Bariol;-inkscape-font-specification:Bariol"
         id="path4814"
         inkscape:connector-curvature="0" />
      <path
         d="m 469.01909,660.00958 c 0.76,0 1.36,-0.60001 1.36,-1.36 l 0,-11.48 8.04,-12.64 c 0.12,-0.2 0.2,-0.44001 0.2,-0.72 0,-0.76 -0.6,-1.36 -1.36,-1.36 -0.48,0 -0.92,0.24 -1.16,0.64 l -7.08,11.36 -7.08,-11.36 c -0.24,-0.4 -0.68,-0.64 -1.16,-0.64 -0.76,0 -1.36,0.6 -1.36,1.36 0,0.27999 0.08,0.52 0.2,0.72 l 8.04,12.64 0,11.48 c 0,0.75999 0.6,1.36 1.36,1.36"
         style="font-variant:normal;font-stretch:normal;fill:#ffffff;font-family:Bariol;-inkscape-font-specification:Bariol"
         id="path4816"
         inkscape:connector-curvature="0" />
      <path
         d="m 485.28221,635.24958 6.56,0 c 2.88,0 4.92,2.2 4.92,5.16 0,2.87999 -2,5.16 -4.8,5.16 l -6.68,0 0,-10.32 m 0,12.8 4.04,0 8.12,11.32 c 0.32,0.47999 0.76,0.64 1.16,0.64 0.76,0 1.36,-0.60001 1.36,-1.36 0,-0.28 -0.08,-0.60001 -0.28,-0.84 l -7.32,-9.76 c 4.32,-0.2 7.16,-3.52001 7.16,-7.64 0,-4.28 -3.2,-7.64 -7.64,-7.64 l -7.96,0 c -0.76,0 -1.36,0.6 -1.36,1.36 l 0,24.52 c 0,0.75999 0.6,1.36 1.36,1.36 0.76,0 1.36,-0.60001 1.36,-1.36 l 0,-10.6"
         style="font-variant:normal;font-stretch:normal;fill:#ffffff;font-family:Bariol;-inkscape-font-specification:Bariol"
         id="path4818"
         inkscape:connector-curvature="0" />
      <path
         d="m 518.23721,649.24958 -9.48,0 4.72,-12.24 4.76,12.24 m 0.84,2.48 2.88,7.36 c 0.2,0.51999 0.64,0.92 1.32,0.92 0.84,0 1.4,-0.64001 1.4,-1.36 0,-0.12 -0.04,-0.40001 -0.12,-0.6 l -9.76,-24.68 c -0.2,-0.48 -0.64,-0.92 -1.32,-0.92 -0.72,0 -1.08,0.44 -1.28,0.92 l -9.76,24.68 c -0.08,0.16 -0.12,0.44 -0.12,0.6 0,0.71999 0.6,1.36 1.36,1.36 0.68,0 1.12,-0.44001 1.32,-0.96 l 2.92,-7.32 11.16,0"
         style="font-variant:normal;font-stretch:normal;fill:#ffffff;font-family:Bariol;-inkscape-font-specification:Bariol"
         id="path4820"
         inkscape:connector-curvature="0" />
      <path
         d="m 540.76846,655.32958 c 0.48,0 0.92,-0.24001 1.2,-0.76 l 8.4,-15.56 0,19.68 c 0,0.71999 0.6,1.32 1.32,1.32 0.72,0 1.32,-0.60001 1.32,-1.32 l 0,-24.92 c 0,-0.72 -0.6,-1.32 -1.32,-1.32 -0.72,0 -1.04,0.48 -1.2,0.76 l -9.72,18.12 -9.68,-18.12 c -0.2,-0.4 -0.6,-0.76 -1.2,-0.76 -0.72,0 -1.32,0.6 -1.32,1.32 l 0,24.92 c 0,0.71999 0.6,1.32 1.32,1.32 0.72,0 1.32,-0.60001 1.32,-1.32 l 0,-19.68 8.36,15.56 c 0.28,0.55999 0.8,0.76 1.2,0.76"
         style="font-variant:normal;font-stretch:normal;fill:#ffffff;font-family:Bariol;-inkscape-font-specification:Bariol"
         id="path4822"
         inkscape:connector-curvature="0" />
      <path
         d="m 562.15721,633.80958 c 0,-0.72 -0.6,-1.36 -1.36,-1.36 -0.76,0 -1.36,0.64 -1.36,1.36 l 0,24.84 c 0,0.71999 0.6,1.36 1.36,1.36 0.76,0 1.36,-0.64001 1.36,-1.36 l 0,-24.84"
         style="font-variant:normal;font-stretch:normal;fill:#ffffff;font-family:Bariol;-inkscape-font-specification:Bariol"
         id="path4824"
         inkscape:connector-curvature="0" />
      <path
         d="m 571.29784,635.24958 4.28,0 c 5.95999,0 9.6,2.76 9.6,11 0,8.31999 -3.64001,10.96 -9.6,10.96 l -4.28,0 0,-21.96 m -1.36,-2.48 c -0.76,0 -1.36,0.6 -1.36,1.36 l 0,24.2 c 0,0.75999 0.6,1.36 1.36,1.36 l 5.64,0 c 7.63999,0 12.36,-3.56001 12.36,-13.44 0,-9.87999 -4.72001,-13.48 -12.36,-13.48 l -5.64,0"
         style="font-variant:normal;font-stretch:normal;fill:#ffffff;font-family:Bariol;-inkscape-font-specification:Bariol"
         id="path4826"
         inkscape:connector-curvature="0" />
    </g>
  </g>
</svg>
