<?xml version="1.0" encoding="UTF-8" standalone="no"?>
<!-- Created with Inkscape (http://www.inkscape.org/) -->

<svg
   xmlns:dc="http://purl.org/dc/elements/1.1/"
   xmlns:cc="http://creativecommons.org/ns#"
   xmlns:rdf="http://www.w3.org/1999/02/22-rdf-syntax-ns#"
   xmlns:svg="http://www.w3.org/2000/svg"
   xmlns="http://www.w3.org/2000/svg"
   xmlns:sodipodi="http://sodipodi.sourceforge.net/DTD/sodipodi-0.dtd"
   xmlns:inkscape="http://www.inkscape.org/namespaces/inkscape"
   width="1382"
   height="59"
   id="svg2"
   version="1.1"
   inkscape:version="0.48.2 r9819"
   sodipodi:docname="checkmark.svg">
  <defs
     id="defs4" />
  <sodipodi:namedview
     id="base"
     pagecolor="#ffffff"
     bordercolor="#666666"
     borderopacity="1.0"
     inkscape:pageopacity="0.0"
     inkscape:pageshadow="2"
     inkscape:zoom="0.5"
     inkscape:cx="665.08908"
     inkscape:cy="-5.791684"
     inkscape:document-units="px"
     inkscape:current-layer="layer1"
     showgrid="false"
     fit-margin-top="0"
     fit-margin-left="0"
     fit-margin-right="0"
     fit-margin-bottom="0"
     inkscape:window-width="1676"
     inkscape:window-height="1006"
     inkscape:window-x="4"
     inkscape:window-y="22"
     inkscape:window-maximized="0" />
  <metadata
     id="metadata7">
    <rdf:RDF>
      <cc:Work
         rdf:about="">
        <dc:format>image/svg+xml</dc:format>
        <dc:type
           rdf:resource="http://purl.org/dc/dcmitype/StillImage" />
        <dc:title />
      </cc:Work>
    </rdf:RDF>
  </metadata>
  <g
     inkscape:label="Layer 1"
     inkscape:groupmode="layer"
     id="layer1"
     transform="translate(0,-377.36218)">
    <path
       style="fill:#4d4d4d;fill-opacity:1;stroke:none"
       d="m 0,383.36218 0,53 156.34375,0 c 7.56763,0 13.65625,-6.08862 13.65625,-13.65625 l 0,-25.6875 c 0,-7.56763 -6.08862,-13.65625 -13.65625,-13.65625 L 0,383.36218 z"
       id="rect3005"
       inkscape:connector-curvature="0" />
    <path
       style="fill:#4dd13a;fill-opacity:1;stroke:none"
       d="m 0,377.36218 0,53 160.34375,0 c 7.56763,0 13.65625,-6.08862 13.65625,-13.65625 l 0,-25.6875 c 0,-7.56763 -6.08862,-13.65625 -13.65625,-13.65625 L 0,377.36218 z"
       id="rect3009"
       inkscape:connector-curvature="0" />
    <path
       style="fill:#ffffff;fill-opacity:1;stroke:none"
       d="m 57.35177,405.21936 14.806505,4.85104 25.489954,-22.3719 -25.489954,32.32737 z"
       id="rect3784"
       inkscape:connector-curvature="0"
       sodipodi:nodetypes="ccccc" />
    <g
       transform="matrix(-1,0,0,1,1382,-69)"
       id="layer1-7"
       inkscape:label="Layer 1">
      <path
         inkscape:connector-curvature="0"
         id="rect3007"
         transform="translate(0,-46.63782)"
         d="m 0,499 0,53 156.34375,0 C 163.91138,552 170,545.91138 170,538.34375 l 0,-25.6875 C 170,505.08862 163.91138,499 156.34375,499 L 0,499 z"
         style="fill:#4d4d4d;fill-opacity:1;stroke:none" />
      <path
         inkscape:connector-curvature="0"
         id="rect3011"
         transform="translate(0,-46.63782)"
         d="m 0,493 0,53 160.34375,0 C 167.91138,546 174,539.91138 174,532.34375 l 0,-25.6875 C 174,499.08862 167.91138,493 160.34375,493 L 0,493 z"
         style="fill:#ff0000;fill-opacity:1;stroke:none" />
      <path
         inkscape:connector-curvature="0"
         id="rect3787"
         d="m -282.24368,372.35135 5.36082,0 0,33.62698 -5.36082,0 z"
         style="fill:#ffffff;fill-opacity:1;stroke:none"
         transform="matrix(0.70710678,-0.70710678,0.70710678,0.70710678,0,0)" />
      <path
         inkscape:connector-curvature="0"
         id="rect3791"
         d="m -391.84525,-296.37677 5.36083,0 0,33.62698 -5.36083,0 z"
         style="fill:#ffffff;fill-opacity:1;stroke:none"
         transform="matrix(-0.70710678,-0.70710678,0.70710678,-0.70710678,0,0)" />
    </g>
  </g>
</svg>
