<?xml version="1.0" encoding="UTF-8" standalone="no"?>
<!-- Created with Inkscape (http://www.inkscape.org/) -->

<svg
   xmlns:dc="http://purl.org/dc/elements/1.1/"
   xmlns:cc="http://creativecommons.org/ns#"
   xmlns:rdf="http://www.w3.org/1999/02/22-rdf-syntax-ns#"
   xmlns:svg="http://www.w3.org/2000/svg"
   xmlns="http://www.w3.org/2000/svg"
   xmlns:sodipodi="http://sodipodi.sourceforge.net/DTD/sodipodi-0.dtd"
   xmlns:inkscape="http://www.inkscape.org/namespaces/inkscape"
   width="362.99994"
   height="111.65625"
   id="svg2"
   version="1.1"
   inkscape:version="0.48.2 r9819"
   sodipodi:docname="pyramid.svg">
  <defs
     id="defs4" />
  <sodipodi:namedview
     id="base"
     pagecolor="#ffffff"
     bordercolor="#666666"
     borderopacity="1.0"
     inkscape:pageopacity="0.0"
     inkscape:pageshadow="2"
     inkscape:zoom="1"
     inkscape:cx="290.97353"
     inkscape:cy="380.78811"
     inkscape:document-units="px"
     inkscape:current-layer="layer1"
     showgrid="false"
     fit-margin-top="0"
     fit-margin-left="0"
     fit-margin-right="0"
     fit-margin-bottom="0"
     inkscape:window-width="1645"
     inkscape:window-height="1006"
     inkscape:window-x="134"
     inkscape:window-y="0"
     inkscape:window-maximized="0" />
  <metadata
     id="metadata7">
    <rdf:RDF>
      <cc:Work
         rdf:about="">
        <dc:format>image/svg+xml</dc:format>
        <dc:type
           rdf:resource="http://purl.org/dc/dcmitype/StillImage" />
        <dc:title></dc:title>
      </cc:Work>
    </rdf:RDF>
  </metadata>
  <g
     inkscape:label="Layer 1"
     inkscape:groupmode="layer"
     id="layer1"
     transform="translate(-330.50002,-611.1299)">
    <path
       inkscape:connector-curvature="0"
       id="path4778"
       d="m 353.15627,615.12995 c -12.55363,0 -22.65625,10.10262 -22.65625,22.65625 l 0,27.6875 c 0,12.55363 10.10262,22.65625 22.65625,22.65625 l 126.21875,0 c 13.36791,2.6222 26.90073,15.11266 30.15625,29.5 0.007,0.0322 0.0241,0.0616 0.0312,0.0937 l 0.4375,5.0625 c 0.026,-0.56987 0.0651,-1.12098 0.125,-1.6875 0.0599,0.56652 0.099,1.11763 0.125,1.6875 l 0.25,-4.125 c 2.82837,-14.82634 16.7125,-27.85876 30.40625,-30.53125 l 125.9375,0 c 12.55363,0 22.65625,-10.10262 22.65625,-22.65625 l 0,-27.6875 c 0,-12.55363 -10.10262,-22.65625 -22.65625,-22.65625 l -313.6875,0 z"
       style="fill:#4d4d4d;fill-opacity:1;stroke:none" />
    <path
       style="fill:#1a1a1a;fill-opacity:1;stroke:none"
       d="m 357.15627,611.12995 c -12.55363,0 -22.65625,10.10262 -22.65625,22.65625 l 0,27.6875 c 0,12.55363 10.10262,22.65625 22.65625,22.65625 l 126.21875,0 c 13.36791,2.6222 26.90073,15.11266 30.15625,29.5 0.007,0.0322 0.0241,0.0616 0.0312,0.0937 l 0.4375,5.0625 c 0.026,-0.56987 0.0651,-1.12098 0.125,-1.6875 0.0599,0.56652 0.099,1.11763 0.125,1.6875 l 0.25,-4.125 c 2.82837,-14.82634 16.7125,-27.85876 30.40625,-30.53125 l 125.9375,0 c 12.55363,0 22.65625,-10.10262 22.65625,-22.65625 l 0,-27.6875 c 0,-12.55363 -10.10262,-22.65625 -22.65625,-22.65625 l -313.6875,0 z"
       id="rect4768"
       inkscape:connector-curvature="0" />
    <g
       style="font-size:40px;font-style:normal;font-weight:normal;line-height:125%;letter-spacing:0px;word-spacing:0px;fill:#ffffff;fill-opacity:1;stroke:none;font-family:Sans"
       id="text4780">
      <path
         d="m 479.53092,660.24958 c 3.68,0 7.28001,-1.68001 9.04,-4.24 0.16,-0.24 0.24,-0.44001 0.24,-0.76 0,-0.72 -0.56,-1.28 -1.28,-1.28 -0.32,0 -0.76,0.12 -1.04,0.52 -1.55999,2.23999 -4.32,3.28 -6.96,3.28 -6.15999,0 -9.68,-3.20001 -9.68,-11.52 0,-7.84 3.52001,-11.56 9.68,-11.56 3,0 5.60001,1.48 6.96,3.36 0.32,0.39999 0.68,0.52 1.04,0.52 0.72,0 1.28,-0.56001 1.28,-1.28 0,-0.28 -0.08,-0.56001 -0.28,-0.84 -1.87999,-2.6 -5.2,-4.24 -9,-4.24 -7.75999,0 -12.48,4.56 -12.48,14.04 0,9.83999 4.72001,14 12.48,14"
         style="font-variant:normal;font-stretch:normal;font-family:Bariol;-inkscape-font-specification:Bariol;fill:#ffffff"
         id="path4829" />
      <path
         d="m 503.1253,660.24958 c 7.55999,0 9.36,-4.36001 9.36,-8.76 l 0,-17.68 c 0,-0.76 -0.6,-1.36 -1.36,-1.36 -0.76,0 -1.36,0.6 -1.36,1.36 l 0,17.68 c 0,3.15999 -1.16001,6.2 -6.64,6.2 -5.52,0 -6.68,-3.04001 -6.68,-6.2 l 0,-17.68 c 0,-0.76 -0.6,-1.36 -1.36,-1.36 -0.76,0 -1.36,0.6 -1.36,1.36 l 0,17.68 c 0,4.39999 1.84001,8.76 9.4,8.76"
         style="font-variant:normal;font-stretch:normal;font-family:Bariol;-inkscape-font-specification:Bariol;fill:#ffffff"
         id="path4831" />
      <path
         d="m 521.36717,635.24958 5.4,0 c 3.72,0 5.44,1.76 5.44,4.64 0,2.79999 -1.88,4.64 -5.44,4.64 l -5.4,0 0,-9.28 m 0,11.6 6.6,0 c 3.4,0 5.48,1.88 5.48,5.16 0,3.23999 -1.84,5.2 -5.48,5.2 l -6.6,0 0,-10.36 m 6.64,12.84 c 5.28,0 8.2,-3.04001 8.2,-7.68 0,-3.88 -2.24,-5.96001 -5.12,-6.68 2.24,-0.64 3.88,-2.80001 3.88,-5.44 0,-4.32 -2.52,-7.12 -8.16,-7.12 l -6.8,0 c -0.72,0 -1.36,0.6 -1.36,1.36 l 0,24.2 c 0,0.75999 0.64,1.36 1.36,1.36 l 8,0"
         style="font-variant:normal;font-stretch:normal;font-family:Bariol;-inkscape-font-specification:Bariol;fill:#ffffff"
         id="path4833" />
      <path
         d="m 555.70905,659.68958 c 0.68,0 1.24,-0.56001 1.24,-1.24 0,-0.68 -0.56,-1.24 -1.24,-1.24 l -11.92,0 0,-9.84 8.8,0 c 0.68,0 1.24,-0.56001 1.24,-1.24 0,-0.68 -0.56,-1.24 -1.24,-1.24 l -8.8,0 0,-9.64 11.48,0 c 0.68,0 1.24,-0.56001 1.24,-1.24 0,-0.68 -0.56,-1.24 -1.24,-1.24 l -12.84,0 c -0.76,0 -1.36,0.6 -1.36,1.36 l 0,24.2 c 0,0.75999 0.6,1.36 1.36,1.36 l 13.28,0"
         style="font-variant:normal;font-stretch:normal;font-family:Bariol;-inkscape-font-specification:Bariol;fill:#ffffff"
         id="path4835" />
    </g>
  </g>
</svg>
