<?xml version="1.0" encoding="UTF-8" standalone="no"?>
<!-- Created with Inkscape (http://www.inkscape.org/) -->

<svg
   xmlns:dc="http://purl.org/dc/elements/1.1/"
   xmlns:cc="http://creativecommons.org/ns#"
   xmlns:rdf="http://www.w3.org/1999/02/22-rdf-syntax-ns#"
   xmlns:svg="http://www.w3.org/2000/svg"
   xmlns="http://www.w3.org/2000/svg"
   xmlns:sodipodi="http://sodipodi.sourceforge.net/DTD/sodipodi-0.dtd"
   xmlns:inkscape="http://www.inkscape.org/namespaces/inkscape"
   width="1024"
   height="768"
   id="svg2"
   version="1.1"
   inkscape:version="0.48.2 r9819"
   sodipodi:docname="deadscreen.svg">
  <defs
     id="defs4" />
  <sodipodi:namedview
     id="base"
     pagecolor="#ffffff"
     bordercolor="#666666"
     borderopacity="1.0"
     inkscape:pageopacity="0.0"
     inkscape:pageshadow="2"
     inkscape:zoom="0.49497475"
     inkscape:cx="490.26966"
     inkscape:cy="371.3113"
     inkscape:document-units="px"
     inkscape:current-layer="layer1"
     showgrid="false"
     inkscape:window-width="1681"
     inkscape:window-height="929"
     inkscape:window-x="4"
     inkscape:window-y="0"
     inkscape:window-maximized="0" />
  <metadata
     id="metadata7">
    <rdf:RDF>
      <cc:Work
         rdf:about="">
        <dc:format>image/svg+xml</dc:format>
        <dc:type
           rdf:resource="http://purl.org/dc/dcmitype/StillImage" />
        <dc:title></dc:title>
      </cc:Work>
    </rdf:RDF>
  </metadata>
  <g
     inkscape:label="Layer 1"
     inkscape:groupmode="layer"
     id="layer1"
     transform="translate(0,-284.36218)">
    <rect
       style="fill:#333333;fill-opacity:1;stroke:none"
       id="rect3790"
       width="1024"
       height="768"
       x="0"
       y="284.36218"
       rx="0"
       ry="0"
       inkscape:export-filename="/Users/Adam/dead.png"
       inkscape:export-xdpi="90.013222"
       inkscape:export-ydpi="90.013222" />
    <g
       id="g3849"
       transform="translate(-4.18,0)">
      <path
         id="path2985"
         d="m 623.32286,580.88323 c 0,59.17337 -47.96949,107.14286 -107.14286,107.14286 -59.17337,0 -107.14286,-47.96949 -107.14286,-107.14286 0,-59.17337 47.96949,-107.14286 107.14286,-107.14286 59.17337,0 107.14286,47.96949 107.14286,107.14286 z"
         style="fill:#ff8584;fill-opacity:1;stroke:none"
         inkscape:connector-curvature="0" />
      <path
         id="path3755"
         d="m 609.03714,580.88324 c 0,51.28358 -41.57355,92.85714 -92.85714,92.85714 -51.28359,0 -92.85715,-41.57356 -92.85715,-92.85714 0,0 0,0 0,0"
         style="fill:#ffffff;fill-opacity:1;stroke:none"
         inkscape:connector-curvature="0" />
      <path
         style="fill:#ffffff;fill-opacity:1;stroke:none"
         d="m 481.35766,541.73703 c -5.52285,9.56586 -17.75466,12.84336 -27.32051,7.32051 -9.56586,-5.52285 -12.84336,-17.75466 -7.32051,-27.32052 0,0 0,0 0,0"
         id="path3757"
         inkscape:connector-curvature="0" />
      <path
         style="fill:#ffffff;fill-opacity:1;stroke:none"
         d="m 551.00234,541.73703 c 5.52285,9.56586 17.75466,12.84336 27.32051,7.32051 9.56586,-5.52285 12.84336,-17.75466 7.32051,-27.32052 0,0 0,0 0,0"
         id="path3767"
         inkscape:connector-curvature="0" />
    </g>
    <g
       style="font-size:40px;font-style:normal;font-weight:normal;line-height:125%;letter-spacing:0px;word-spacing:0px;fill:#ffffff;fill-opacity:1;stroke:none;font-family:Sans;-inkscape-font-specification:Bariol"
       id="text3779">
      <path
         d="m 366.20087,769.36164 c 1.064,0 1.904,-0.84001 1.904,-1.904 l 0,-16.072 11.256,-17.696 c 0.168,-0.28 0.28,-0.61601 0.28,-1.008 0,-1.064 -0.84,-1.904 -1.904,-1.904 -0.672,0 -1.288,0.336 -1.624,0.896 l -9.912,15.904 -9.912,-15.904 c -0.336,-0.56 -0.952,-0.896 -1.624,-0.896 -1.064,0 -1.904,0.84 -1.904,1.904 0,0.39199 0.112,0.728 0.28,1.008 l 11.256,17.696 0,16.072 c 0,1.06399 0.84,1.904 1.904,1.904"
         style="font-size:56px;font-variant:normal;font-stretch:normal;text-align:center;text-anchor:middle;fill:#ffffff;font-family:Bariol;-inkscape-font-specification:Bariol"
         id="path3875" />
      <path
         d="m 399.74224,769.69764 c 10.86399,0 17.472,-6.44002 17.472,-19.6 0,-13.27199 -6.60801,-19.656 -17.472,-19.656 -10.86399,0 -17.472,6.38401 -17.472,19.656 0,13.15998 6.60801,19.6 17.472,19.6 m 0,-35.784 c 8.568,0 13.552,5.20801 13.552,16.184 0,10.91998 -4.984,16.128 -13.552,16.128 -8.56799,0 -13.552,-5.20802 -13.552,-16.128 0,-10.97599 4.98401,-16.184 13.552,-16.184"
         style="font-size:56px;font-variant:normal;font-stretch:normal;text-align:center;text-anchor:middle;fill:#ffffff;font-family:Bariol;-inkscape-font-specification:Bariol"
         id="path3877" />
      <path
         d="m 437.36812,769.69764 c 10.58399,0 13.104,-6.10401 13.104,-12.264 l 0,-24.752 c 0,-1.064 -0.84,-1.904 -1.904,-1.904 -1.064,0 -1.904,0.84 -1.904,1.904 l 0,24.752 c 0,4.42399 -1.62401,8.68 -9.296,8.68 -7.72799,0 -9.352,-4.25601 -9.352,-8.68 l 0,-24.752 c 0,-1.064 -0.84,-1.904 -1.904,-1.904 -1.064,0 -1.904,0.84 -1.904,1.904 l 0,24.752 c 0,6.15999 2.57601,12.264 13.16,12.264"
         style="font-size:56px;font-variant:normal;font-stretch:normal;text-align:center;text-anchor:middle;fill:#ffffff;font-family:Bariol;-inkscape-font-specification:Bariol"
         id="path3879" />
      <path
         d="m 459.32274,730.77764 c -1.11999,0 -1.624,0.616 -1.568,1.512 l 0.504,9.632 c 0.056,0.61599 0.392,0.952 1.064,0.952 0.672,0 1.008,-0.33601 1.064,-0.952 l 0.504,-9.632 c 0.056,-0.896 -0.448,-1.512 -1.568,-1.512"
         style="font-size:56px;font-variant:normal;font-stretch:normal;text-align:center;text-anchor:middle;fill:#ffffff;font-family:Bariol;-inkscape-font-specification:Bariol"
         id="path3881" />
      <path
         d="m 472.31299,734.69764 9.184,0 c 4.032,0 6.888,3.08 6.888,7.224 0,4.03199 -2.8,7.224 -6.72,7.224 l -9.352,0 0,-14.448 m 0,17.92 5.656,0 11.368,15.848 c 0.448,0.67199 1.064,0.896 1.624,0.896 1.064,0 1.904,-0.84001 1.904,-1.904 0,-0.392 -0.112,-0.84001 -0.392,-1.176 l -10.248,-13.664 c 6.048,-0.28 10.024,-4.92801 10.024,-10.696 0,-5.992 -4.48,-10.696 -10.696,-10.696 l -11.144,0 c -1.064,0 -1.904,0.84 -1.904,1.904 l 0,34.328 c 0,1.06399 0.84,1.904 1.904,1.904 1.064,0 1.904,-0.84001 1.904,-1.904 l 0,-14.84"
         style="font-size:56px;font-variant:normal;font-stretch:normal;text-align:center;text-anchor:middle;fill:#ffffff;font-family:Bariol;-inkscape-font-specification:Bariol"
         id="path3883" />
      <path
         d="m 519.62599,768.91364 c 0.952,0 1.736,-0.78401 1.736,-1.736 0,-0.952 -0.784,-1.736 -1.736,-1.736 l -16.688,0 0,-13.776 12.32,0 c 0.952,0 1.736,-0.78401 1.736,-1.736 0,-0.952 -0.784,-1.736 -1.736,-1.736 l -12.32,0 0,-13.496 16.072,0 c 0.952,0 1.736,-0.78401 1.736,-1.736 0,-0.952 -0.784,-1.736 -1.736,-1.736 l -17.976,0 c -1.064,0 -1.904,0.84 -1.904,1.904 l 0,33.88 c 0,1.06399 0.84,1.904 1.904,1.904 l 18.592,0"
         style="font-size:56px;font-variant:normal;font-stretch:normal;text-align:center;text-anchor:middle;fill:#ffffff;font-family:Bariol;-inkscape-font-specification:Bariol"
         id="path3885" />
      <path
         d="m 545.26612,734.69764 5.992,0 c 8.34399,0 13.44,3.86401 13.44,15.4 0,11.64798 -5.09601,15.344 -13.44,15.344 l -5.992,0 0,-30.744 m -1.904,-3.472 c -1.064,0 -1.904,0.84 -1.904,1.904 l 0,33.88 c 0,1.06399 0.84,1.904 1.904,1.904 l 7.896,0 c 10.69599,0 17.304,-4.98402 17.304,-18.816 0,-13.83199 -6.60801,-18.872 -17.304,-18.872 l -7.896,0"
         style="font-size:56px;font-variant:normal;font-stretch:normal;text-align:center;text-anchor:middle;fill:#ffffff;font-family:Bariol;-inkscape-font-specification:Bariol"
         id="path3887" />
      <path
         d="m 595.96974,768.91364 c 0.952,0 1.736,-0.78401 1.736,-1.736 0,-0.952 -0.784,-1.736 -1.736,-1.736 l -16.688,0 0,-13.776 12.32,0 c 0.952,0 1.736,-0.78401 1.736,-1.736 0,-0.952 -0.784,-1.736 -1.736,-1.736 l -12.32,0 0,-13.496 16.072,0 c 0.952,0 1.736,-0.78401 1.736,-1.736 0,-0.952 -0.784,-1.736 -1.736,-1.736 l -17.976,0 c -1.064,0 -1.904,0.84 -1.904,1.904 l 0,33.88 c 0,1.06399 0.84,1.904 1.904,1.904 l 18.592,0"
         style="font-size:56px;font-variant:normal;font-stretch:normal;text-align:center;text-anchor:middle;fill:#ffffff;font-family:Bariol;-inkscape-font-specification:Bariol"
         id="path3889" />
      <path
         d="m 623.77812,754.29764 -13.272,0 6.608,-17.136 6.664,17.136 m 1.176,3.472 4.032,10.304 c 0.28,0.72799 0.896,1.288 1.848,1.288 1.176,0 1.96,-0.89601 1.96,-1.904 0,-0.168 -0.056,-0.56001 -0.168,-0.84 l -13.664,-34.552 c -0.28,-0.672 -0.896,-1.288 -1.848,-1.288 -1.008,0 -1.512,0.616 -1.792,1.288 l -13.664,34.552 c -0.112,0.224 -0.168,0.616 -0.168,0.84 0,1.00799 0.84,1.904 1.904,1.904 0.952,0 1.568,-0.61601 1.848,-1.344 l 4.088,-10.248 15.624,0"
         style="font-size:56px;font-variant:normal;font-stretch:normal;text-align:center;text-anchor:middle;fill:#ffffff;font-family:Bariol;-inkscape-font-specification:Bariol"
         id="path3891" />
      <path
         d="m 642.60987,734.69764 5.992,0 c 8.34399,0 13.44,3.86401 13.44,15.4 0,11.64798 -5.09601,15.344 -13.44,15.344 l -5.992,0 0,-30.744 m -1.904,-3.472 c -1.064,0 -1.904,0.84 -1.904,1.904 l 0,33.88 c 0,1.06399 0.84,1.904 1.904,1.904 l 7.896,0 c 10.69599,0 17.304,-4.98402 17.304,-18.816 0,-13.83199 -6.60801,-18.872 -17.304,-18.872 l -7.896,0"
         style="font-size:56px;font-variant:normal;font-stretch:normal;text-align:center;text-anchor:middle;fill:#ffffff;font-family:Bariol;-inkscape-font-specification:Bariol"
         id="path3893" />
      <path
         d="m 667.78624,769.36164 c 1.624,0 2.632,-0.78401 2.632,-2.632 0,-1.848 -1.008,-2.688 -2.632,-2.688 -1.62399,0 -2.632,0.84 -2.632,2.688 0,1.84799 1.00801,2.632 2.632,2.632"
         style="font-size:56px;font-variant:normal;font-stretch:normal;text-align:center;text-anchor:middle;fill:#ffffff;font-family:Bariol;-inkscape-font-specification:Bariol"
         id="path3895" />
      <path
         d="m 281.71312,797.39051 c -0.8,0 -1.16,0.44 -1.12,1.08 l 0.36,6.88 c 0.04,0.44 0.28,0.68 0.76,0.68 0.48,0 0.72,-0.24 0.76,-0.68 l 0.36,-6.88 c 0.04,-0.64 -0.32,-1.08 -1.12,-1.08 m 4.48,0 c -0.8,0 -1.16,0.44 -1.12,1.08 l 0.36,6.88 c 0.04,0.44 0.28,0.68 0.76,0.68 0.48,0 0.72,-0.24 0.76,-0.68 l 0.36,-6.88 c 0.04,-0.64 -0.32,-1.08 -1.12,-1.08"
         style="font-variant:normal;font-stretch:normal;text-align:center;text-anchor:middle;fill:#ffffff;font-family:Bariol;-inkscape-font-specification:Bariol"
         id="path3897" />
      <path
         d="m 294.64499,807.43051 c 0,-0.72 -0.56,-1.28 -1.28,-1.28 -0.72,0 -1.28,0.56 -1.28,1.28 l 0,16.24 c 0,0.72 0.56,1.28 1.28,1.28 0.72,0 1.28,-0.56 1.28,-1.28 l 0,-16.24 m -1.28,-5.04 c 0.96,0 1.52,-0.56 1.52,-1.52 0,-1.16 -0.56,-1.6 -1.52,-1.6 -0.96,0 -1.52,0.44 -1.52,1.6 0,0.96 0.56,1.52 1.52,1.52"
         style="font-variant:normal;font-stretch:normal;text-align:center;text-anchor:middle;fill:#ffffff;font-family:Bariol;-inkscape-font-specification:Bariol"
         id="path3899" />
      <path
         d="m 300.65937,808.87051 0,14.8 c 0,0.72 0.56,1.28 1.28,1.28 0.72,0 1.28,-0.56 1.28,-1.28 l 0,-14.8 3.64,0 c 0.68,0 1.2,-0.52 1.2,-1.2 0,-0.68 -0.52,-1.2 -1.2,-1.2 l -3.64,0 0,-2.36 c 0,-2.59999 1.24,-4.48 4.36,-4.48 0.68,0 1.2,-0.52 1.2,-1.2 0,-0.68 -0.52,-1.2 -1.2,-1.2 -4.88,0 -6.92,3.28001 -6.92,6.88 l 0,2.36 -1.36,0 c -0.68,0 -1.2,0.52 -1.2,1.2 0,0.68 0.52,1.2 1.2,1.2 l 1.36,0"
         style="font-variant:normal;font-stretch:normal;text-align:center;text-anchor:middle;fill:#ffffff;font-family:Bariol;-inkscape-font-specification:Bariol"
         id="path3901" />
      <path
         d="m 327.63312,808.31051 c 2.92,0 4.72,1.68001 4.72,4.4 l 0,1.08 -5.64,0 c -4.32,0 -7,2.12001 -7,5.64 0,3.68 2.68,5.72 6.92,5.72 2.4,0 4.72,-1 5.72,-2.88 l 0,1.44 c 0,0.68 0.56,1.24 1.24,1.24 0.68,0 1.24,-0.56 1.24,-1.24 l 0,-11 c 0,-4.07999 -2.56001,-6.8 -7.2,-6.8 -3.36,0 -5.52,1.40001 -6.64,3.16 -0.12,0.2 -0.2,0.4 -0.2,0.68 0,0.64 0.52,1.16 1.16,1.16 0.36,0 0.64,-0.12 1.04,-0.56 1.24,-1.39999 2.52,-2.04 4.64,-2.04 m -0.76,14.52 c -3.12,0 -4.56,-1.32 -4.56,-3.4 0,-2.31999 1.8,-3.4 4.4,-3.4 l 5.64,0 0,1.68 c 0,3.4 -2.68,5.12 -5.48,5.12"
         style="font-variant:normal;font-stretch:normal;text-align:center;text-anchor:middle;fill:#ffffff;font-family:Bariol;-inkscape-font-specification:Bariol"
         id="path3903" />
      <path
         d="m 340.62499,806.47051 -1.56,0 c -0.68,0 -1.2,0.52 -1.2,1.2 0,0.68 0.52,1.2 1.2,1.2 l 1.56,0 0,11.04 c 0,2.92 1.72001,5.04 4.88,5.04 0.68,0 1.24,-0.52 1.24,-1.2 0,-0.68 -0.56,-1.2 -1.24,-1.2 -1.35999,0 -2.32,-0.92 -2.32,-2.64 l 0,-11.04 2.6,0 c 0.68,0 1.2,-0.52 1.2,-1.2 0,-0.68 -0.52,-1.2 -1.2,-1.2 l -2.6,0 0,-4.2 c 0,-0.68 -0.56,-1.28 -1.28,-1.28 -0.68,0 -1.28,0.6 -1.28,1.28 l 0,4.2"
         style="font-variant:normal;font-stretch:normal;text-align:center;text-anchor:middle;fill:#ffffff;font-family:Bariol;-inkscape-font-specification:Bariol"
         id="path3905" />
      <path
         d="m 361.12812,808.87051 0,14.8 c 0,0.72 0.56,1.28 1.28,1.28 0.72,0 1.28,-0.56 1.28,-1.28 l 0,-14.8 7.76,0 0,14.8 c 0,0.72 0.56,1.28 1.28,1.28 0.72,0 1.28,-0.56 1.28,-1.28 l 0,-15.92 c 0,-0.72 -0.56,-1.28 -1.28,-1.28 l -9.04,0 0,-2.36 c 0,-2.59999 1.24,-4.48 4.36,-4.48 1.32,0 2.04,0.24 2.92,0.56 0.32,0.12 0.6,0.24 0.84,0.24 0.68,0 1.2,-0.52 1.2,-1.2 0,-0.48 -0.24,-0.84 -0.72,-1.12 -0.72,-0.4 -2.48,-0.88 -4.24,-0.88 -4.88,0 -6.92,3.28001 -6.92,6.88 l 0,2.36 -1.36,0 c -0.68,0 -1.2,0.52 -1.2,1.2 0,0.68 0.52,1.2 1.2,1.2 l 1.36,0"
         style="font-variant:normal;font-stretch:normal;text-align:center;text-anchor:middle;fill:#ffffff;font-family:Bariol;-inkscape-font-specification:Bariol"
         id="path3907" />
      <path
         d="m 381.79437,807.43051 c 0,-0.72 -0.56,-1.28 -1.28,-1.28 -0.72,0 -1.28,0.56 -1.28,1.28 l 0,16.24 c 0,0.72 0.56,1.28 1.28,1.28 0.72,0 1.28,-0.56 1.28,-1.28 l 0,-8.96 c 0,-3.67999 1.88,-6.24 5.56,-6.24 0.68,0 1.24,-0.56 1.24,-1.24 0,-0.68 -0.56,-1.24 -1.24,-1.24 -2.76,0 -4.76,1.36001 -5.56,3.2 l 0,-1.76"
         style="font-variant:normal;font-stretch:normal;text-align:center;text-anchor:middle;fill:#ffffff;font-family:Bariol;-inkscape-font-specification:Bariol"
         id="path3909" />
      <path
         d="m 397.02374,808.39051 c 2.08,0 3.28,0.64 4.36,1.68 0.32,0.32 0.64,0.36 0.84,0.36 0.64,0 1.16,-0.52 1.16,-1.16 0,-0.36 -0.16,-0.6 -0.28,-0.76 -1.23999,-1.63999 -3.36,-2.56 -6.08,-2.56 -3.39999,0 -6.12,1.52001 -6.12,4.84 0,6.56 10.52,4.92001 10.52,9.04 0,2.08 -1.96,2.84 -4.24,2.84 -2.23999,0 -3.84,-0.72 -5.08,-1.96 -0.32,-0.32 -0.64,-0.4 -0.88,-0.4 -0.64,0 -1.16,0.52 -1.16,1.16 0,0.28 0.08,0.48 0.28,0.76 1.04,1.32 3.56001,2.88 6.84,2.88 3.8,0 6.8,-1.64 6.8,-5.28 0,-6.39999 -10.52,-4.84 -10.52,-9.04 0,-1.83999 1.76001,-2.4 3.56,-2.4"
         style="font-variant:normal;font-stretch:normal;text-align:center;text-anchor:middle;fill:#ffffff;font-family:Bariol;-inkscape-font-specification:Bariol"
         id="path3911" />
      <path
         d="m 409.29687,806.47051 -1.56,0 c -0.68,0 -1.2,0.52 -1.2,1.2 0,0.68 0.52,1.2 1.2,1.2 l 1.56,0 0,11.04 c 0,2.92 1.72,5.04 4.88,5.04 0.68,0 1.24,-0.52 1.24,-1.2 0,-0.68 -0.56,-1.2 -1.24,-1.2 -1.36,0 -2.32,-0.92 -2.32,-2.64 l 0,-11.04 2.6,0 c 0.68,0 1.2,-0.52 1.2,-1.2 0,-0.68 -0.52,-1.2 -1.2,-1.2 l -2.6,0 0,-4.2 c 0,-0.68 -0.56,-1.28 -1.28,-1.28 -0.68,0 -1.28,0.6 -1.28,1.28 l 0,4.2"
         style="font-variant:normal;font-stretch:normal;text-align:center;text-anchor:middle;fill:#ffffff;font-family:Bariol;-inkscape-font-specification:Bariol"
         id="path3913" />
      <path
         d="m 427.79999,830.27051 c -0.68,0 -1.2,0.52 -1.2,1.2 0,0.68 0.52,1.2 1.2,1.2 3.8,0 5.84001,-2 7.48,-5.92 l 7.88,-18.76 c 0.04,-0.12 0.12,-0.28 0.12,-0.56 0,-0.72 -0.56,-1.28 -1.28,-1.28 -0.72,0 -1.04,0.44 -1.2,0.84 l -5.64,13.8 -5.64,-13.8 c -0.16,-0.4 -0.48,-0.84 -1.2,-0.84 -0.72,0 -1.28,0.56 -1.28,1.28 0,0.28 0.08,0.44 0.12,0.56 l 6.68,15.88 c -1.63999,4.04 -2.56,6.4 -6.04,6.4"
         style="font-variant:normal;font-stretch:normal;text-align:center;text-anchor:middle;fill:#ffffff;font-family:Bariol;-inkscape-font-specification:Bariol"
         id="path3915" />
      <path
         d="m 453.07499,805.91051 c -5.15999,0 -8.4,3.04001 -8.4,9.6 0,6.56 3.24001,9.64 8.4,9.64 5.2,0 8.4,-3.08 8.4,-9.64 0,-6.55999 -3.2,-9.6 -8.4,-9.6 m 0,16.92 c -3.67999,0 -5.8,-2.2 -5.8,-7.32 0,-5.03999 2.12001,-7.28 5.8,-7.28 3.68,0 5.8,2.24001 5.8,7.28 0,5.12 -2.12,7.32 -5.8,7.32"
         style="font-variant:normal;font-stretch:normal;text-align:center;text-anchor:middle;fill:#ffffff;font-family:Bariol;-inkscape-font-specification:Bariol"
         id="path3917" />
      <path
         d="m 466.36437,806.15051 c -0.72,0 -1.28,0.56 -1.28,1.28 l 0,10.44 c 0,3.8 1.28001,7.28 7.44,7.28 6.19999,0 7.44,-3.48 7.44,-7.28 l 0,-10.44 c 0,-0.72 -0.56,-1.28 -1.24,-1.28 -0.72,0 -1.32,0.56 -1.32,1.28 l 0,10.44 c 0,2.6 -0.84001,4.84 -4.88,4.84 -4.04,0 -4.88,-2.24 -4.88,-4.84 l 0,-10.44 c 0,-0.72 -0.6,-1.28 -1.28,-1.28"
         style="font-variant:normal;font-stretch:normal;text-align:center;text-anchor:middle;fill:#ffffff;font-family:Bariol;-inkscape-font-specification:Bariol"
         id="path3919" />
      <path
         d="m 506.59249,817.27051 c 0,3.8 -2.2,5.56 -5.28,5.56 -3.67999,0 -5.64,-2.32 -5.64,-7.32 0,-4.91999 2.00001,-7.28 5.64,-7.28 3.76,0 5.28,3.52 5.28,3.52 l 0,5.52 m -5.44,-11.36 c -5.15999,0 -8.04,3.04001 -8.04,9.6 0,6.56 3.04001,9.64 8.2,9.64 4.56,0 7.84,-2.6 7.84,-7.88 l 0,-19.84 c 0,-0.72 -0.56,-1.28 -1.28,-1.28 -0.72,0 -1.28,0.56 -1.28,1.28 l 0,11.08 c -0.92,-1.28 -2.88,-2.6 -5.44,-2.6"
         style="font-variant:normal;font-stretch:normal;text-align:center;text-anchor:middle;fill:#ffffff;font-family:Bariol;-inkscape-font-specification:Bariol"
         id="path3921" />
      <path
         d="m 521.59062,805.91051 c -5.16,0 -8.4,3.04001 -8.4,9.6 0,6.56 3.24,9.64 8.4,9.64 5.19999,0 8.4,-3.08 8.4,-9.64 0,-6.55999 -3.20001,-9.6 -8.4,-9.6 m 0,16.92 c -3.68,0 -5.8,-2.2 -5.8,-7.32 0,-5.03999 2.12,-7.28 5.8,-7.28 3.68,0 5.8,2.24001 5.8,7.28 0,5.12 -2.12,7.32 -5.8,7.32"
         style="font-variant:normal;font-stretch:normal;text-align:center;text-anchor:middle;fill:#ffffff;font-family:Bariol;-inkscape-font-specification:Bariol"
         id="path3923" />
      <path
         d="m 541.87999,805.91051 c -2.59999,0 -4.56,1.28001 -5.32,2.8 l 0,-1.28 c 0,-0.72 -0.56,-1.28 -1.28,-1.28 -0.72,0 -1.28,0.56 -1.28,1.28 l 0,16.24 c 0,0.72 0.56,1.28 1.28,1.28 0.72,0 1.28,-0.56 1.28,-1.28 l 0,-9.88 c 0,-3.19999 1.36001,-5.6 5.32,-5.6 3.88,0 4.8,2.16001 4.8,5.32 l 0,10.16 c 0,0.72 0.56,1.28 1.28,1.28 0.72,0 1.28,-0.56 1.28,-1.28 l 0,-10.68 c 0,-3.39999 -1.2,-7.08 -7.36,-7.08"
         style="font-variant:normal;font-stretch:normal;text-align:center;text-anchor:middle;fill:#ffffff;font-family:Bariol;-inkscape-font-specification:Bariol"
         id="path3925" />
      <path
         d="m 554.83812,797.39051 c -0.8,0 -1.16,0.44 -1.12,1.08 l 0.36,6.88 c 0.04,0.44 0.28,0.68 0.76,0.68 0.48,0 0.72,-0.24 0.76,-0.68 l 0.36,-6.88 c 0.04,-0.64 -0.32,-1.08 -1.12,-1.08"
         style="font-variant:normal;font-stretch:normal;text-align:center;text-anchor:middle;fill:#ffffff;font-family:Bariol;-inkscape-font-specification:Bariol"
         id="path3927" />
      <path
         d="m 561.79687,806.47051 -1.56,0 c -0.68,0 -1.2,0.52 -1.2,1.2 0,0.68 0.52,1.2 1.2,1.2 l 1.56,0 0,11.04 c 0,2.92 1.72,5.04 4.88,5.04 0.68,0 1.24,-0.52 1.24,-1.2 0,-0.68 -0.56,-1.2 -1.24,-1.2 -1.36,0 -2.32,-0.92 -2.32,-2.64 l 0,-11.04 2.6,0 c 0.68,0 1.2,-0.52 1.2,-1.2 0,-0.68 -0.52,-1.2 -1.2,-1.2 l -2.6,0 0,-4.2 c 0,-0.68 -0.56,-1.28 -1.28,-1.28 -0.68,0 -1.28,0.6 -1.28,1.28 l 0,4.2"
         style="font-variant:normal;font-stretch:normal;text-align:center;text-anchor:middle;fill:#ffffff;font-family:Bariol;-inkscape-font-specification:Bariol"
         id="path3929" />
      <path
         d="m 587.17999,808.39051 c 2.08,0 3.28,0.64 4.36,1.68 0.32,0.32 0.64,0.36 0.84,0.36 0.64,0 1.16,-0.52 1.16,-1.16 0,-0.36 -0.16,-0.6 -0.28,-0.76 -1.23999,-1.63999 -3.36,-2.56 -6.08,-2.56 -3.39999,0 -6.12,1.52001 -6.12,4.84 0,6.56 10.52,4.92001 10.52,9.04 0,2.08 -1.96,2.84 -4.24,2.84 -2.23999,0 -3.84,-0.72 -5.08,-1.96 -0.32,-0.32 -0.64,-0.4 -0.88,-0.4 -0.64,0 -1.16,0.52 -1.16,1.16 0,0.28 0.08,0.48 0.28,0.76 1.04,1.32 3.56001,2.88 6.84,2.88 3.8,0 6.8,-1.64 6.8,-5.28 0,-6.39999 -10.52,-4.84 -10.52,-9.04 0,-1.83999 1.76001,-2.4 3.56,-2.4"
         style="font-variant:normal;font-stretch:normal;text-align:center;text-anchor:middle;fill:#ffffff;font-family:Bariol;-inkscape-font-specification:Bariol"
         id="path3931" />
      <path
         d="m 599.33312,806.15051 c -0.72,0 -1.28,0.56 -1.28,1.28 l 0,10.44 c 0,3.8 1.28001,7.28 7.44,7.28 6.19999,0 7.44,-3.48 7.44,-7.28 l 0,-10.44 c 0,-0.72 -0.56,-1.28 -1.24,-1.28 -0.72,0 -1.32,0.56 -1.32,1.28 l 0,10.44 c 0,2.6 -0.84001,4.84 -4.88,4.84 -4.04,0 -4.88,-2.24 -4.88,-4.84 l 0,-10.44 c 0,-0.72 -0.6,-1.28 -1.28,-1.28"
         style="font-variant:normal;font-stretch:normal;text-align:center;text-anchor:middle;fill:#ffffff;font-family:Bariol;-inkscape-font-specification:Bariol"
         id="path3933" />
      <path
         d="m 616.54999,815.51051 c 0,6.56 3.08001,9.64 8.24,9.64 3.24,0 5.16,-1.44 6.04,-2.16 0.4,-0.36 0.52,-0.64 0.52,-1 0,-0.64 -0.52,-1.16 -1.16,-1.16 -0.28,0 -0.48,0.08 -0.76,0.28 -0.92,0.68 -2.32,1.72 -4.64,1.72 -3.67999,0 -5.64,-2.32 -5.64,-7.32 0,-4.91999 1.96001,-7.28 5.64,-7.28 2.64,0 3.72,1.2 4.32,1.88 0.28,0.32 0.56,0.48 0.96,0.48 0.64,0 1.16,-0.48 1.16,-1.16 0,-0.28 -0.08,-0.48 -0.28,-0.76 -0.64,-0.88 -2.6,-2.76 -6.16,-2.76 -5.15999,0 -8.24,3.04001 -8.24,9.6"
         style="font-variant:normal;font-stretch:normal;text-align:center;text-anchor:middle;fill:#ffffff;font-family:Bariol;-inkscape-font-specification:Bariol"
         id="path3935" />
      <path
         d="m 634.20624,815.51051 c 0,6.56 3.08001,9.64 8.24,9.64 3.24,0 5.16,-1.44 6.04,-2.16 0.4,-0.36 0.52,-0.64 0.52,-1 0,-0.64 -0.52,-1.16 -1.16,-1.16 -0.28,0 -0.48,0.08 -0.76,0.28 -0.92,0.68 -2.32,1.72 -4.64,1.72 -3.67999,0 -5.64,-2.32 -5.64,-7.32 0,-4.91999 1.96001,-7.28 5.64,-7.28 2.64,0 3.72,1.2 4.32,1.88 0.28,0.32 0.56,0.48 0.96,0.48 0.64,0 1.16,-0.48 1.16,-1.16 0,-0.28 -0.08,-0.48 -0.28,-0.76 -0.64,-0.88 -2.6,-2.76 -6.16,-2.76 -5.15999,0 -8.24,3.04001 -8.24,9.6"
         style="font-variant:normal;font-stretch:normal;text-align:center;text-anchor:middle;fill:#ffffff;font-family:Bariol;-inkscape-font-specification:Bariol"
         id="path3937" />
      <path
         d="m 651.86249,815.51051 c 0,6.72 3.32001,9.64 8.64,9.64 3.56,0 5.64,-1.64 6.24,-2.24 0.24,-0.24 0.44,-0.48 0.44,-0.92 0,-0.64 -0.52,-1.16 -1.16,-1.16 -0.32,0 -0.48,0.08 -0.72,0.24 -1.11999,0.84 -2.48,1.72 -4.8,1.72 -3.75999,0 -6.04,-2.56 -6.04,-6.52 l 11.68,0 c 1.6,0 1.6,-1.4 1.6,-2.56 0,-2.71999 -1.24,-7.8 -7.64,-7.8 -5.19999,0 -8.24,3.44001 -8.24,9.6 m 13.36,-1.48 -10.76,0 c 0.24,-3.55999 2.16001,-5.8 5.64,-5.8 4.12,0 5.12,2.92001 5.12,5.8"
         style="font-variant:normal;font-stretch:normal;text-align:center;text-anchor:middle;fill:#ffffff;font-family:Bariol;-inkscape-font-specification:Bariol"
         id="path3939" />
      <path
         d="m 670.53437,815.51051 c 0,6.72 3.32,9.64 8.64,9.64 3.56,0 5.64,-1.64 6.24,-2.24 0.24,-0.24 0.44,-0.48 0.44,-0.92 0,-0.64 -0.52,-1.16 -1.16,-1.16 -0.32,0 -0.48,0.08 -0.72,0.24 -1.12,0.84 -2.48,1.72 -4.8,1.72 -3.76,0 -6.04,-2.56 -6.04,-6.52 l 11.68,0 c 1.6,0 1.6,-1.4 1.6,-2.56 0,-2.71999 -1.24001,-7.8 -7.64,-7.8 -5.2,0 -8.24,3.44001 -8.24,9.6 m 13.36,-1.48 -10.76,0 c 0.24,-3.55999 2.16,-5.8 5.64,-5.8 4.11999,0 5.12,2.92001 5.12,5.8"
         style="font-variant:normal;font-stretch:normal;text-align:center;text-anchor:middle;fill:#ffffff;font-family:Bariol;-inkscape-font-specification:Bariol"
         id="path3941" />
      <path
         d="m 702.68624,817.27051 c 0,3.8 -2.2,5.56 -5.28,5.56 -3.67999,0 -5.64,-2.32 -5.64,-7.32 0,-4.91999 2.00001,-7.28 5.64,-7.28 3.76,0 5.28,3.52 5.28,3.52 l 0,5.52 m -5.44,-11.36 c -5.15999,0 -8.04,3.04001 -8.04,9.6 0,6.56 3.04001,9.64 8.2,9.64 4.56,0 7.84,-2.6 7.84,-7.88 l 0,-19.84 c 0,-0.72 -0.56,-1.28 -1.28,-1.28 -0.72,0 -1.28,0.56 -1.28,1.28 l 0,11.08 c -0.92,-1.28 -2.88,-2.6 -5.44,-2.6"
         style="font-variant:normal;font-stretch:normal;text-align:center;text-anchor:middle;fill:#ffffff;font-family:Bariol;-inkscape-font-specification:Bariol"
         id="path3943" />
      <path
         d="m 709.52187,824.95051 c 1.16,0 1.88,-0.56 1.88,-1.88 0,-1.32 -0.72,-1.92 -1.88,-1.92 -1.16,0 -1.88,0.6 -1.88,1.92 0,1.32 0.72,1.88 1.88,1.88 m 10.84,0 c 1.16,0 1.88,-0.56 1.88,-1.88 0,-1.32 -0.72,-1.92 -1.88,-1.92 -1.16,0 -1.88,0.6 -1.88,1.92 0,1.32 0.72,1.88 1.88,1.88 m 10.88,0 c 1.16,0 1.88,-0.56 1.88,-1.88 0,-1.32 -0.72,-1.92 -1.88,-1.92 -1.16,0 -1.88,0.6 -1.88,1.92 0,1.32 0.72,1.88 1.88,1.88"
         style="font-variant:normal;font-stretch:normal;text-align:center;text-anchor:middle;fill:#ffffff;font-family:Bariol;-inkscape-font-specification:Bariol"
         id="path3945" />
      <path
         d="m 737.80687,797.39051 c -0.8,0 -1.16,0.44 -1.12,1.08 l 0.36,6.88 c 0.04,0.44 0.28,0.68 0.76,0.68 0.48,0 0.72,-0.24 0.76,-0.68 l 0.36,-6.88 c 0.04,-0.64 -0.32,-1.08 -1.12,-1.08 m 4.48,0 c -0.8,0 -1.16,0.44 -1.12,1.08 l 0.36,6.88 c 0.04,0.44 0.28,0.68 0.76,0.68 0.48,0 0.72,-0.24 0.76,-0.68 l 0.36,-6.88 c 0.04,-0.64 -0.32,-1.08 -1.12,-1.08"
         style="font-variant:normal;font-stretch:normal;text-align:center;text-anchor:middle;fill:#ffffff;font-family:Bariol;-inkscape-font-specification:Bariol"
         id="path3947" />
      <path
         d="m 328.51831,853.018 c 0,-0.33 -0.264,-0.594 -0.594,-0.594 l -4.4,0 c -0.33,0 -0.594,0.264 -0.594,0.594 0,0.33 0.264,0.594 0.594,0.594 l 4.4,0 c 0.33,0 0.594,-0.264 0.594,-0.594"
         style="font-size:22px;font-weight:bold;-inkscape-font-specification:Bariol"
         id="path3949" />
      <path
         d="m 338.5039,852.82 -5.214,0 2.596,-6.732 2.618,6.732 m 0.462,1.364 1.584,4.048 c 0.11,0.286 0.352,0.506 0.726,0.506 0.462,0 0.77,-0.352 0.77,-0.748 0,-0.066 -0.022,-0.22 -0.066,-0.33 l -5.368,-13.574 c -0.11,-0.264 -0.352,-0.506 -0.726,-0.506 -0.396,0 -0.594,0.242 -0.704,0.506 l -5.368,13.574 c -0.044,0.088 -0.066,0.242 -0.066,0.33 0,0.396 0.33,0.748 0.748,0.748 0.374,0 0.616,-0.242 0.726,-0.528 l 1.606,-4.026 6.138,0"
         style="font-size:22px;font-weight:bold;-inkscape-font-specification:Bariol"
         id="path3951" />
      <path
         d="m 347.62118,849.586 c 1.606,0 2.596,0.924 2.596,2.42 l 0,0.594 -3.102,0 c -2.376,0 -3.85,1.166 -3.85,3.102 0,2.024 1.474,3.146 3.806,3.146 1.32,0 2.596,-0.55 3.146,-1.584 l 0,0.792 c 0,0.374 0.308,0.682 0.682,0.682 0.374,0 0.682,-0.308 0.682,-0.682 l 0,-6.05 c 0,-2.244 -1.408,-3.74 -3.96,-3.74 -1.848,0 -3.036,0.77 -3.652,1.738 -0.066,0.11 -0.11,0.22 -0.11,0.374 0,0.352 0.286,0.638 0.638,0.638 0.198,0 0.352,-0.066 0.572,-0.308 0.682,-0.77 1.386,-1.122 2.552,-1.122 m -0.418,7.986 c -1.716,0 -2.508,-0.726 -2.508,-1.87 0,-1.276 0.99,-1.87 2.42,-1.87 l 3.102,0 0,0.924 c 0,1.87 -1.474,2.816 -3.014,2.816"
         style="font-size:22px;font-weight:bold;-inkscape-font-specification:Bariol"
         id="path3953" />
      <path
         d="m 354.92071,842.898 c -0.374,0 -0.704,0.33 -0.704,0.704 l 0,12.562 c 0,1.694 0.814,2.574 2.288,2.574 0.352,0 0.66,-0.286 0.66,-0.66 0,-0.374 -0.308,-0.66 -0.66,-0.66 -0.594,0 -0.88,-0.374 -0.88,-1.254 l 0,-12.562 c 0,-0.374 -0.308,-0.704 -0.704,-0.704"
         style="font-size:22px;font-weight:bold;-inkscape-font-specification:Bariol"
         id="path3955" />
      <path
         d="m 360.41521,849.102 c 0,-0.396 -0.308,-0.704 -0.704,-0.704 -0.396,0 -0.704,0.308 -0.704,0.704 l 0,8.932 c 0,0.396 0.308,0.704 0.704,0.704 0.396,0 0.704,-0.308 0.704,-0.704 l 0,-8.932 m -0.704,-2.772 c 0.528,0 0.836,-0.308 0.836,-0.836 0,-0.638 -0.308,-0.88 -0.836,-0.88 -0.528,0 -0.836,0.242 -0.836,0.88 0,0.528 0.308,0.836 0.836,0.836"
         style="font-size:22px;font-weight:bold;-inkscape-font-specification:Bariol"
         id="path3957" />
      <path
         d="m 362.62312,861.664 c -0.374,0 -0.66,0.286 -0.66,0.66 0,0.374 0.286,0.66 0.66,0.66 2.09,0 3.212,-1.1 4.114,-3.256 l 4.334,-10.318 c 0.022,-0.066 0.066,-0.154 0.066,-0.308 0,-0.396 -0.308,-0.704 -0.704,-0.704 -0.396,0 -0.572,0.242 -0.66,0.462 l -3.102,7.59 -3.102,-7.59 c -0.088,-0.22 -0.264,-0.462 -0.66,-0.462 -0.396,0 -0.704,0.308 -0.704,0.704 0,0.154 0.044,0.242 0.066,0.308 l 3.674,8.734 c -0.902,2.222 -1.408,3.52 -3.322,3.52"
         style="font-size:22px;font-weight:bold;-inkscape-font-specification:Bariol"
         id="path3959" />
      <path
         d="m 376.58212,849.586 c 1.606,0 2.596,0.924 2.596,2.42 l 0,0.594 -3.102,0 c -2.376,0 -3.85,1.166 -3.85,3.102 0,2.024 1.474,3.146 3.806,3.146 1.32,0 2.596,-0.55 3.146,-1.584 l 0,0.792 c 0,0.374 0.308,0.682 0.682,0.682 0.374,0 0.682,-0.308 0.682,-0.682 l 0,-6.05 c 0,-2.244 -1.408,-3.74 -3.96,-3.74 -1.848,0 -3.036,0.77 -3.652,1.738 -0.066,0.11 -0.11,0.22 -0.11,0.374 0,0.352 0.286,0.638 0.638,0.638 0.198,0 0.352,-0.066 0.572,-0.308 0.682,-0.77 1.386,-1.122 2.552,-1.122 m -0.418,7.986 c -1.716,0 -2.508,-0.726 -2.508,-1.87 0,-1.276 0.99,-1.87 2.42,-1.87 l 3.102,0 0,0.924 c 0,1.87 -1.474,2.816 -3.014,2.816"
         style="font-size:22px;font-weight:bold;-inkscape-font-specification:Bariol"
         id="path3961" />
      <path
         d="m 387.51165,848.266 c -1.43,0 -2.508,0.704 -2.926,1.54 l 0,-6.204 c 0,-0.396 -0.308,-0.704 -0.704,-0.704 -0.396,0 -0.704,0.308 -0.704,0.704 l 0,14.432 c 0,0.396 0.308,0.704 0.704,0.704 0.396,0 0.704,-0.308 0.704,-0.704 l 0,-5.434 c 0,-1.76 0.748,-3.08 2.926,-3.08 2.134,0 2.64,1.188 2.64,2.926 l 0,5.588 c 0,0.396 0.308,0.704 0.704,0.704 0.396,0 0.704,-0.308 0.704,-0.704 l 0,-5.874 c 0,-1.87 -0.66,-3.894 -4.048,-3.894"
         style="font-size:22px;font-weight:bold;-inkscape-font-specification:Bariol"
         id="path3963" />
      <path
         d="m 395.62862,858.056 c 0,-1.012 -0.396,-1.408 -1.078,-1.408 -0.638,0 -1.034,0.33 -1.034,1.056 0,0.902 0.792,1.056 0.792,1.892 0,0.77 -0.286,1.276 -0.814,2.002 -0.044,0.066 -0.066,0.132 -0.066,0.198 0,0.198 0.154,0.33 0.33,0.33 0.154,0 0.22,-0.066 0.286,-0.132 0.968,-1.012 1.584,-2.42 1.584,-3.938"
         style="font-size:22px;font-weight:bold;-inkscape-font-specification:Bariol"
         id="path3965" />
      <path
         d="m 409.80384,858.232 c 0.088,0.308 0.374,0.506 0.682,0.506 0.308,0 0.55,-0.176 0.66,-0.462 l 3.234,-8.866 c 0.044,-0.11 0.066,-0.22 0.066,-0.308 0,-0.396 -0.308,-0.704 -0.704,-0.704 -0.308,0 -0.55,0.176 -0.66,0.462 l -2.552,7.282 -2.09,-7.282 c -0.066,-0.22 -0.286,-0.462 -0.66,-0.462 -0.374,0 -0.594,0.242 -0.66,0.462 l -2.09,7.282 -2.552,-7.282 c -0.11,-0.286 -0.352,-0.462 -0.66,-0.462 -0.396,0 -0.704,0.308 -0.704,0.704 0,0.088 0.022,0.198 0.066,0.308 l 3.234,8.866 c 0.11,0.286 0.352,0.462 0.66,0.462 0.308,0 0.594,-0.198 0.682,-0.506 l 2.024,-6.974 2.024,6.974"
         style="font-size:22px;font-weight:bold;-inkscape-font-specification:Bariol"
         id="path3967" />
      <path
         d="m 420.59759,848.266 c -1.43,0 -2.508,0.704 -2.926,1.54 l 0,-6.204 c 0,-0.396 -0.308,-0.704 -0.704,-0.704 -0.396,0 -0.704,0.308 -0.704,0.704 l 0,14.432 c 0,0.396 0.308,0.704 0.704,0.704 0.396,0 0.704,-0.308 0.704,-0.704 l 0,-5.434 c 0,-1.76 0.748,-3.08 2.926,-3.08 2.134,0 2.64,1.188 2.64,2.926 l 0,5.588 c 0,0.396 0.308,0.704 0.704,0.704 0.396,0 0.704,-0.308 0.704,-0.704 l 0,-5.874 c 0,-1.87 -0.66001,-3.894 -4.048,-3.894"
         style="font-size:22px;font-weight:bold;-inkscape-font-specification:Bariol"
         id="path3969" />
      <path
         d="m 431.26656,848.266 c -2.838,0 -4.62,1.67201 -4.62,5.28 0,3.608 1.782,5.302 4.62,5.302 2.85999,0 4.62,-1.694 4.62,-5.302 0,-3.60799 -1.76001,-5.28 -4.62,-5.28 m 0,9.306 c -2.024,0 -3.19,-1.21 -3.19,-4.026 0,-2.772 1.166,-4.004 3.19,-4.004 2.02399,0 3.19,1.232 3.19,4.004 0,2.816 -1.16601,4.026 -3.19,4.026"
         style="font-size:22px;font-weight:bold;-inkscape-font-specification:Bariol"
         id="path3971" />
      <path
         d="m 444.7199,849.102 c 0,-0.396 -0.308,-0.704 -0.704,-0.704 -0.396,0 -0.704,0.308 -0.704,0.704 l 0,8.932 c 0,0.396 0.308,0.704 0.704,0.704 0.396,0 0.704,-0.308 0.704,-0.704 l 0,-8.932 m -0.704,-2.772 c 0.528,0 0.836,-0.308 0.836,-0.836 0,-0.638 -0.308,-0.88 -0.836,-0.88 -0.528,0 -0.836,0.242 -0.836,0.88 0,0.528 0.308,0.836 0.836,0.836"
         style="font-size:22px;font-weight:bold;-inkscape-font-specification:Bariol"
         id="path3973" />
      <path
         d="m 450.71181,849.63 c 1.144,0 1.804,0.352 2.398,0.924 0.176,0.176 0.352,0.198 0.462,0.198 0.352,0 0.638,-0.286 0.638,-0.638 0,-0.198 -0.088,-0.33 -0.154,-0.418 -0.682,-0.902 -1.84801,-1.408 -3.344,-1.408 -1.87,0 -3.366,0.836 -3.366,2.662 0,3.608 5.786,2.706 5.786,4.972 0,1.144 -1.078,1.562 -2.332,1.562 -1.232,0 -2.112,-0.396 -2.794,-1.078 -0.176,-0.176 -0.352,-0.22 -0.484,-0.22 -0.352,0 -0.638,0.286 -0.638,0.638 0,0.154 0.044,0.264 0.154,0.418 0.572,0.726 1.958,1.584 3.762,1.584 2.08999,0 3.74,-0.902 3.74,-2.904 0,-3.51999 -5.786,-2.662 -5.786,-4.972 0,-1.012 0.968,-1.32 1.958,-1.32"
         style="font-size:22px;font-weight:bold;-inkscape-font-specification:Bariol"
         id="path3975" />
      <path
         d="m 465.82821,849.586 c 1.606,0 2.596,0.924 2.596,2.42 l 0,0.594 -3.102,0 c -2.37599,0 -3.85,1.166 -3.85,3.102 0,2.024 1.474,3.146 3.806,3.146 1.32,0 2.596,-0.55 3.146,-1.584 l 0,0.792 c 0,0.374 0.308,0.682 0.682,0.682 0.374,0 0.682,-0.308 0.682,-0.682 l 0,-6.05 c 0,-2.244 -1.408,-3.74 -3.96,-3.74 -1.848,0 -3.036,0.77 -3.652,1.738 -0.066,0.11 -0.11,0.22 -0.11,0.374 0,0.352 0.286,0.638 0.638,0.638 0.198,0 0.352,-0.066 0.572,-0.308 0.682,-0.77 1.386,-1.122 2.552,-1.122 m -0.418,7.986 c -1.716,0 -2.508,-0.726 -2.508,-1.87 0,-1.276 0.99,-1.87 2.42,-1.87 l 3.102,0 0,0.924 c 0,1.87 -1.474,2.816 -3.014,2.816"
         style="font-size:22px;font-weight:bold;-inkscape-font-specification:Bariol"
         id="path3977" />
      <path
         d="m 473.12774,842.898 c -0.374,0 -0.704,0.33 -0.704,0.704 l 0,12.562 c 0,1.694 0.81401,2.574 2.288,2.574 0.352,0 0.66,-0.286 0.66,-0.66 0,-0.374 -0.308,-0.66 -0.66,-0.66 -0.594,0 -0.88,-0.374 -0.88,-1.254 l 0,-12.562 c 0,-0.374 -0.308,-0.704 -0.704,-0.704"
         style="font-size:22px;font-weight:bold;-inkscape-font-specification:Bariol"
         id="path3979" />
      <path
         d="m 480.36024,849.63 c 1.144,0 1.804,0.352 2.398,0.924 0.176,0.176 0.352,0.198 0.462,0.198 0.352,0 0.638,-0.286 0.638,-0.638 0,-0.198 -0.088,-0.33 -0.154,-0.418 -0.682,-0.902 -1.848,-1.408 -3.344,-1.408 -1.86999,0 -3.366,0.836 -3.366,2.662 0,3.608 5.786,2.706 5.786,4.972 0,1.144 -1.078,1.562 -2.332,1.562 -1.23199,0 -2.112,-0.396 -2.794,-1.078 -0.176,-0.176 -0.352,-0.22 -0.484,-0.22 -0.352,0 -0.638,0.286 -0.638,0.638 0,0.154 0.044,0.264 0.154,0.418 0.572,0.726 1.95801,1.584 3.762,1.584 2.09,0 3.74,-0.902 3.74,-2.904 0,-3.51999 -5.786,-2.662 -5.786,-4.972 0,-1.012 0.968,-1.32 1.958,-1.32"
         style="font-size:22px;font-weight:bold;-inkscape-font-specification:Bariol"
         id="path3981" />
      <path
         d="m 490.52046,848.266 c -2.83799,0 -4.62,1.67201 -4.62,5.28 0,3.608 1.78201,5.302 4.62,5.302 2.86,0 4.62,-1.694 4.62,-5.302 0,-3.60799 -1.76,-5.28 -4.62,-5.28 m 0,9.306 c -2.024,0 -3.19,-1.21 -3.19,-4.026 0,-2.772 1.166,-4.004 3.19,-4.004 2.024,0 3.19,1.232 3.19,4.004 0,2.816 -1.166,4.026 -3.19,4.026"
         style="font-size:22px;font-weight:bold;-inkscape-font-specification:Bariol"
         id="path3983" />
      <path
         d="m 509.34181,854.514 c 0,2.09 -1.21001,3.058 -2.904,3.058 -2.024,0 -3.102,-1.276 -3.102,-4.026 0,-2.706 1.1,-4.004 3.102,-4.004 2.06799,0 2.904,1.936 2.904,1.936 l 0,3.036 m -2.992,-6.248 c -2.838,0 -4.422,1.67201 -4.422,5.28 0,3.608 1.672,5.302 4.51,5.302 2.50799,0 4.312,-1.43 4.312,-4.334 l 0,-10.912 c 0,-0.396 -0.308,-0.704 -0.704,-0.704 -0.396,0 -0.704,0.308 -0.704,0.704 l 0,6.094 c -0.506,-0.704 -1.58401,-1.43 -2.992,-1.43"
         style="font-size:22px;font-weight:bold;-inkscape-font-specification:Bariol"
         id="path3985" />
      <path
         d="m 512.97078,853.546 c 0,3.696 1.826,5.302 4.752,5.302 1.95799,0 3.102,-0.902 3.432,-1.232 0.132,-0.132 0.242,-0.264 0.242,-0.506 0,-0.352 -0.28601,-0.638 -0.638,-0.638 -0.176,0 -0.264,0.044 -0.396,0.132 -0.616,0.462 -1.36401,0.946 -2.64,0.946 -2.068,0 -3.322,-1.408 -3.322,-3.586 l 6.424,0 c 0.87999,0 0.88,-0.77 0.88,-1.408 0,-1.496 -0.68201,-4.29 -4.202,-4.29 -2.86,0 -4.532,1.89201 -4.532,5.28 m 7.348,-0.814 -5.918,0 c 0.132,-1.958 1.188,-3.19 3.102,-3.19 2.26599,0 2.816,1.606 2.816,3.19"
         style="font-size:22px;font-weight:bold;-inkscape-font-specification:Bariol"
         id="path3987" />
      <path
         d="m 527.57431,849.586 c 1.60599,0 2.596,0.924 2.596,2.42 l 0,0.594 -3.102,0 c -2.376,0 -3.85,1.166 -3.85,3.102 0,2.024 1.474,3.146 3.806,3.146 1.32,0 2.596,-0.55 3.146,-1.584 l 0,0.792 c 0,0.374 0.308,0.682 0.682,0.682 0.374,0 0.682,-0.308 0.682,-0.682 l 0,-6.05 c 0,-2.244 -1.40801,-3.74 -3.96,-3.74 -1.848,0 -3.036,0.77 -3.652,1.738 -0.066,0.11 -0.11,0.22 -0.11,0.374 0,0.352 0.286,0.638 0.638,0.638 0.198,0 0.352,-0.066 0.572,-0.308 0.682,-0.77 1.386,-1.122 2.552,-1.122 m -0.418,7.986 c -1.716,0 -2.508,-0.726 -2.508,-1.87 0,-1.276 0.99,-1.87 2.42,-1.87 l 3.102,0 0,0.924 c 0,1.87 -1.47401,2.816 -3.014,2.816"
         style="font-size:22px;font-weight:bold;-inkscape-font-specification:Bariol"
         id="path3989" />
      <path
         d="m 540.92384,854.514 c 0,2.09 -1.21,3.058 -2.904,3.058 -2.024,0 -3.102,-1.276 -3.102,-4.026 0,-2.706 1.1,-4.004 3.102,-4.004 2.068,0 2.904,1.936 2.904,1.936 l 0,3.036 m -2.992,-6.248 c -2.838,0 -4.422,1.67201 -4.422,5.28 0,3.608 1.672,5.302 4.51,5.302 2.508,0 4.312,-1.43 4.312,-4.334 l 0,-10.912 c 0,-0.396 -0.308,-0.704 -0.704,-0.704 -0.396,0 -0.704,0.308 -0.704,0.704 l 0,6.094 c -0.506,-0.704 -1.584,-1.43 -2.992,-1.43"
         style="font-size:22px;font-weight:bold;-inkscape-font-specification:Bariol"
         id="path3991" />
      <path
         d="m 545.54281,858.738 c 0.638,0 1.034,-0.308 1.034,-1.034 0,-0.726 -0.396,-1.056 -1.034,-1.056 -0.638,0 -1.034,0.33 -1.034,1.056 0,0.726 0.396,1.034 1.034,1.034"
         style="font-size:22px;-inkscape-font-specification:Bariol"
         id="path3993" />
      <path
         d="m 555.80443,845.12 2.97,0 c 2.046,0 2.992,0.968 2.992,2.552 0,1.54 -1.034,2.552 -2.992,2.552 l -2.97,0 0,-5.104 m 0,6.38 3.63,0 c 1.87,0 3.014,1.034 3.014,2.838 0,1.782 -1.012,2.86 -3.014,2.86 l -3.63,0 0,-5.698 m 3.652,7.062 c 2.904,0 4.51,-1.672 4.51,-4.224 0,-2.134 -1.232,-3.278 -2.816,-3.674 1.232,-0.352 2.134,-1.54 2.134,-2.992 0,-2.376 -1.386,-3.916 -4.488,-3.916 l -3.74,0 c -0.396,0 -0.748,0.33 -0.748,0.748 l 0,13.31 c 0,0.418 0.352,0.748 0.748,0.748 l 4.4,0"
         style="font-size:22px;-inkscape-font-specification:Bariol"
         id="path3995" />
      <path
         d="m 566.79446,848.398 c -0.396,0 -0.704,0.308 -0.704,0.704 l 0,5.742 c 0,2.09 0.70401,4.004 4.092,4.004 3.41,0 4.092,-1.914 4.092,-4.004 l 0,-5.742 c 0,-0.396 -0.308,-0.704 -0.682,-0.704 -0.396,0 -0.726,0.308 -0.726,0.704 l 0,5.742 c 0,1.43 -0.462,2.662 -2.684,2.662 -2.222,0 -2.684,-1.232 -2.684,-2.662 l 0,-5.742 c 0,-0.396 -0.33,-0.704 -0.704,-0.704"
         style="font-size:22px;-inkscape-font-specification:Bariol"
         id="path3997" />
      <path
         d="m 577.47374,848.574 -0.858,0 c -0.374,0 -0.66,0.286 -0.66,0.66 0,0.374 0.286,0.66 0.66,0.66 l 0.858,0 0,6.072 c 0,1.606 0.94601,2.772 2.684,2.772 0.374,0 0.682,-0.286 0.682,-0.66 0,-0.374 -0.308,-0.66 -0.682,-0.66 -0.748,0 -1.276,-0.506 -1.276,-1.452 l 0,-6.072 1.43,0 c 0.374,0 0.66,-0.286 0.66,-0.66 0,-0.374 -0.286,-0.66 -0.66,-0.66 l -1.43,0 0,-2.31 c 0,-0.374 -0.308,-0.704 -0.704,-0.704 -0.374,0 -0.704,0.33 -0.704,0.704 l 0,2.31"
         style="font-size:22px;-inkscape-font-specification:Bariol"
         id="path3999" />
      <path
         d="m 592.64446,848.266 c -1.43,0 -2.508,0.704 -2.926,1.54 l 0,-6.204 c 0,-0.396 -0.308,-0.704 -0.704,-0.704 -0.396,0 -0.704,0.308 -0.704,0.704 l 0,14.432 c 0,0.396 0.308,0.704 0.704,0.704 0.396,0 0.704,-0.308 0.704,-0.704 l 0,-5.434 c 0,-1.76 0.748,-3.08 2.926,-3.08 2.134,0 2.64,1.188 2.64,2.926 l 0,5.588 c 0,0.396 0.308,0.704 0.704,0.704 0.396,0 0.704,-0.308 0.704,-0.704 l 0,-5.874 c 0,-1.87 -0.66,-3.894 -4.048,-3.894"
         style="font-size:22px;-inkscape-font-specification:Bariol"
         id="path4001" />
      <path
         d="m 598.69343,853.546 c 0,3.696 1.826,5.302 4.752,5.302 1.958,0 3.102,-0.902 3.432,-1.232 0.132,-0.132 0.242,-0.264 0.242,-0.506 0,-0.352 -0.286,-0.638 -0.638,-0.638 -0.176,0 -0.264,0.044 -0.396,0.132 -0.616,0.462 -1.364,0.946 -2.64,0.946 -2.068,0 -3.322,-1.408 -3.322,-3.586 l 6.424,0 c 0.88,0 0.88,-0.77 0.88,-1.408 0,-1.496 -0.682,-4.29 -4.202,-4.29 -2.86,0 -4.532,1.89201 -4.532,5.28 m 7.348,-0.814 -5.918,0 c 0.132,-1.958 1.188,-3.19 3.102,-3.19 2.266,0 2.816,1.606 2.816,3.19"
         style="font-size:22px;-inkscape-font-specification:Bariol"
         id="path4003" />
      <path
         d="m 608.96296,861.664 c -0.374,0 -0.66,0.286 -0.66,0.66 0,0.374 0.286,0.66 0.66,0.66 2.09,0 3.212,-1.1 4.114,-3.256 l 4.334,-10.318 c 0.022,-0.066 0.066,-0.154 0.066,-0.308 0,-0.396 -0.308,-0.704 -0.704,-0.704 -0.396,0 -0.572,0.242 -0.66,0.462 l -3.102,7.59 -3.102,-7.59 c -0.088,-0.22 -0.264,-0.462 -0.66,-0.462 -0.396,0 -0.704,0.308 -0.704,0.704 0,0.154 0.044,0.242 0.066,0.308 l 3.674,8.734 c -0.902,2.222 -1.408,3.52 -3.322,3.52"
         style="font-size:22px;-inkscape-font-specification:Bariol"
         id="path4005" />
      <path
         d="m 618.6794,858.056 c 0,-1.012 -0.396,-1.408 -1.078,-1.408 -0.638,0 -1.034,0.33 -1.034,1.056 0,0.902 0.792,1.056 0.792,1.892 0,0.77 -0.286,1.276 -0.814,2.002 -0.044,0.066 -0.066,0.132 -0.066,0.198 0,0.198 0.154,0.33 0.33,0.33 0.154,0 0.22,-0.066 0.286,-0.132 0.968,-1.012 1.584,-2.42 1.584,-3.938"
         style="font-size:22px;-inkscape-font-specification:Bariol"
         id="path4007" />
      <path
         d="m 625.77062,848.574 -0.858,0 c -0.374,0 -0.66,0.286 -0.66,0.66 0,0.374 0.286,0.66 0.66,0.66 l 0.858,0 0,6.072 c 0,1.606 0.946,2.772 2.684,2.772 0.374,0 0.682,-0.286 0.682,-0.66 0,-0.374 -0.308,-0.66 -0.682,-0.66 -0.748,0 -1.276,-0.506 -1.276,-1.452 l 0,-6.072 1.43,0 c 0.374,0 0.66,-0.286 0.66,-0.66 0,-0.374 -0.286,-0.66 -0.66,-0.66 l -1.43,0 0,-2.31 c 0,-0.374 -0.308,-0.704 -0.704,-0.704 -0.374,0 -0.704,0.33 -0.704,0.704 l 0,2.31"
         style="font-size:22px;-inkscape-font-specification:Bariol"
         id="path4009" />
      <path
         d="m 632.77315,849.102 c 0,-0.396 -0.308,-0.704 -0.704,-0.704 -0.396,0 -0.704,0.308 -0.704,0.704 l 0,8.932 c 0,0.396 0.308,0.704 0.704,0.704 0.396,0 0.704,-0.308 0.704,-0.704 l 0,-4.928 c 0,-2.024 1.034,-3.432 3.058,-3.432 0.374,0 0.682,-0.308 0.682,-0.682 0,-0.374 -0.308,-0.682 -0.682,-0.682 -1.518,0 -2.618,0.748 -3.058,1.76 l 0,-0.968"
         style="font-size:22px;-inkscape-font-specification:Bariol"
         id="path4011" />
      <path
         d="m 638.26765,861.664 c -0.374,0 -0.66,0.286 -0.66,0.66 0,0.374 0.286,0.66 0.66,0.66 2.09,0 3.212,-1.1 4.114,-3.256 l 4.334,-10.318 c 0.022,-0.066 0.066,-0.154 0.066,-0.308 0,-0.396 -0.308,-0.704 -0.704,-0.704 -0.396,0 -0.572,0.242 -0.66,0.462 l -3.102,7.59 -3.102,-7.59 c -0.088,-0.22 -0.264,-0.462 -0.66,-0.462 -0.396,0 -0.704,0.308 -0.704,0.704 0,0.154 0.044,0.242 0.066,0.308 l 3.674,8.734 c -0.902,2.222 -1.408,3.52 -3.322,3.52"
         style="font-size:22px;-inkscape-font-specification:Bariol"
         id="path4013" />
      <path
         d="m 657.46884,849.586 c 1.606,0 2.596,0.924 2.596,2.42 l 0,0.594 -3.102,0 c -2.376,0 -3.85,1.166 -3.85,3.102 0,2.024 1.474,3.146 3.806,3.146 1.32,0 2.596,-0.55 3.146,-1.584 l 0,0.792 c 0,0.374 0.308,0.682 0.682,0.682 0.374,0 0.682,-0.308 0.682,-0.682 l 0,-6.05 c 0,-2.244 -1.408,-3.74 -3.96,-3.74 -1.848,0 -3.036,0.77 -3.652,1.738 -0.066,0.11 -0.11,0.22 -0.11,0.374 0,0.352 0.286,0.638 0.638,0.638 0.198,0 0.352,-0.066 0.572,-0.308 0.682,-0.77 1.386,-1.122 2.552,-1.122 m -0.418,7.986 c -1.716,0 -2.508,-0.726 -2.508,-1.87 0,-1.276 0.99,-1.87 2.42,-1.87 l 3.102,0 0,0.924 c 0,1.87 -1.474,2.816 -3.014,2.816"
         style="font-size:22px;-inkscape-font-specification:Bariol"
         id="path4015" />
      <path
         d="m 667.67237,848.266 c -2.552,0 -4.048,1.452 -4.048,3.696 0,0.946 0.264,1.738 0.792,2.398 -0.528,0.352 -0.88,0.88 -0.88,1.54 0,0.858 0.55,1.518 1.364,1.782 -1.034,0.418 -1.672,1.21 -1.672,2.222 0,2.42 2.42,3.08 4.686,3.08 2.662,0 4.73,-0.88 4.73,-3.168 0,-2.068 -1.716,-2.992 -3.85,-2.992 l -2.266,0 c -1.32,0 -1.628,-0.462 -1.628,-0.924 0,-0.352 0.154,-0.594 0.396,-0.792 0.616,0.352 1.43,0.55 2.376,0.55 2.552,0 4.048,-1.452 4.048,-3.696 0,-0.946 -0.286,-1.76 -0.792,-2.376 0.154,-0.352 0.396,-0.682 1.056,-0.682 0.352,0 0.638,-0.286 0.638,-0.638 0,-0.352 -0.286,-0.638 -0.638,-0.638 -1.1,0 -1.584,0.506 -1.958,1.188 -0.616,-0.352 -1.452,-0.55 -2.354,-0.55 m 0,6.116 c -1.694,0 -2.618,-0.968 -2.618,-2.42 0,-1.452 0.924,-2.42 2.618,-2.42 1.694,0 2.618,0.968 2.618,2.42 0,1.452 -0.924,2.42 -2.618,2.42 m 3.542,5.434 c 0,1.43 -1.54,1.936 -3.278,1.936 -1.738,0 -3.278,-0.506 -3.278,-1.848 0,-0.88 0.572,-1.54 1.848,-1.76 l 2.288,0 c 1.43,0 2.42,0.462 2.42,1.672"
         style="font-size:22px;-inkscape-font-specification:Bariol"
         id="path4017" />
      <path
         d="m 678.26571,849.586 c 1.606,0 2.596,0.924 2.596,2.42 l 0,0.594 -3.102,0 c -2.37599,0 -3.85,1.166 -3.85,3.102 0,2.024 1.474,3.146 3.806,3.146 1.32,0 2.596,-0.55 3.146,-1.584 l 0,0.792 c 0,0.374 0.308,0.682 0.682,0.682 0.374,0 0.682,-0.308 0.682,-0.682 l 0,-6.05 c 0,-2.244 -1.408,-3.74 -3.96,-3.74 -1.848,0 -3.036,0.77 -3.652,1.738 -0.066,0.11 -0.11,0.22 -0.11,0.374 0,0.352 0.286,0.638 0.638,0.638 0.198,0 0.352,-0.066 0.572,-0.308 0.682,-0.77 1.386,-1.122 2.552,-1.122 m -0.418,7.986 c -1.716,0 -2.508,-0.726 -2.508,-1.87 0,-1.276 0.99,-1.87 2.42,-1.87 l 3.102,0 0,0.924 c 0,1.87 -1.474,2.816 -3.014,2.816"
         style="font-size:22px;-inkscape-font-specification:Bariol"
         id="path4019" />
      <path
         d="m 686.24724,849.102 c 0,-0.396 -0.308,-0.704 -0.704,-0.704 -0.396,0 -0.704,0.308 -0.704,0.704 l 0,8.932 c 0,0.396 0.308,0.704 0.704,0.704 0.396,0 0.704,-0.308 0.704,-0.704 l 0,-8.932 m -0.704,-2.772 c 0.528,0 0.836,-0.308 0.836,-0.836 0,-0.638 -0.308,-0.88 -0.836,-0.88 -0.528,0 -0.836,0.242 -0.836,0.88 0,0.528 0.308,0.836 0.836,0.836"
         style="font-size:22px;-inkscape-font-specification:Bariol"
         id="path4021" />
      <path
         d="m 693.44915,848.266 c -1.43,0 -2.508,0.704 -2.926,1.54 l 0,-0.704 c 0,-0.396 -0.308,-0.704 -0.704,-0.704 -0.396,0 -0.704,0.308 -0.704,0.704 l 0,8.932 c 0,0.396 0.308,0.704 0.704,0.704 0.396,0 0.704,-0.308 0.704,-0.704 l 0,-5.434 c 0,-1.76 0.748,-3.08 2.926,-3.08 2.134,0 2.64,1.188 2.64,2.926 l 0,5.588 c 0,0.396 0.308,0.704 0.704,0.704 0.396,0 0.704,-0.308 0.704,-0.704 l 0,-5.874 c 0,-1.87 -0.66,-3.894 -4.048,-3.894"
         style="font-size:22px;-inkscape-font-specification:Bariol"
         id="path4023" />
      <path
         d="m 700.48812,858.738 c 0.638,0 1.034,-0.308 1.034,-1.034 0,-0.726 -0.396,-1.056 -1.034,-1.056 -0.638,0 -1.034,0.33 -1.034,1.056 0,0.726 0.396,1.034 1.034,1.034"
         style="font-size:22px;-inkscape-font-specification:Bariol"
         id="path4025" />
    </g>
  </g>
</svg>
