<?xml version="1.0" encoding="UTF-8" standalone="no"?>
<!-- Created with Inkscape (http://www.inkscape.org/) -->

<svg
   xmlns:dc="http://purl.org/dc/elements/1.1/"
   xmlns:cc="http://creativecommons.org/ns#"
   xmlns:rdf="http://www.w3.org/1999/02/22-rdf-syntax-ns#"
   xmlns:svg="http://www.w3.org/2000/svg"
   xmlns="http://www.w3.org/2000/svg"
   xmlns:sodipodi="http://sodipodi.sourceforge.net/DTD/sodipodi-0.dtd"
   xmlns:inkscape="http://www.inkscape.org/namespaces/inkscape"
   width="174"
   height="59"
   id="svg2"
   version="1.1"
   inkscape:version="0.48.2 r9819"
   sodipodi:docname="checkmark.svg">
  <defs
     id="defs4" />
  <sodipodi:namedview
     id="base"
     pagecolor="#ffffff"
     bordercolor="#666666"
     borderopacity="1.0"
     inkscape:pageopacity="0.0"
     inkscape:pageshadow="2"
     inkscape:zoom="1"
     inkscape:cx="428.31843"
     inkscape:cy="-181.79168"
     inkscape:document-units="px"
     inkscape:current-layer="layer1"
     showgrid="false"
     fit-margin-top="0"
     fit-margin-left="0"
     fit-margin-right="0"
     fit-margin-bottom="0"
     inkscape:window-width="1676"
     inkscape:window-height="1006"
     inkscape:window-x="4"
     inkscape:window-y="0"
     inkscape:window-maximized="1" />
  <metadata
     id="metadata7">
    <rdf:RDF>
      <cc:Work
         rdf:about="">
        <dc:format>image/svg+xml</dc:format>
        <dc:type
           rdf:resource="http://purl.org/dc/dcmitype/StillImage" />
        <dc:title></dc:title>
      </cc:Work>
    </rdf:RDF>
  </metadata>
  <g
     inkscape:label="Layer 1"
     inkscape:groupmode="layer"
     id="layer1"
     transform="translate(0,-446.36218)">
    <path
       style="fill:#4d4d4d;fill-opacity:1;stroke:none"
       d="m 0,499 0,53 156.34375,0 C 163.91138,552 170,545.91138 170,538.34375 l 0,-25.6875 C 170,505.08862 163.91138,499 156.34375,499 L 0,499 z"
       transform="translate(0,-46.63782)"
       id="rect3007"
       inkscape:connector-curvature="0" />
    <path
       style="fill:#ff0000;fill-opacity:1;stroke:none"
       d="m 0,493 0,53 160.34375,0 C 167.91138,546 174,539.91138 174,532.34375 l 0,-25.6875 C 174,499.08862 167.91138,493 160.34375,493 L 0,493 z"
       transform="translate(0,-46.63782)"
       id="rect3011"
       inkscape:connector-curvature="0" />
    <path
       transform="matrix(0.70710678,-0.70710678,0.70710678,0.70710678,0,0)"
       style="fill:#ffffff;fill-opacity:1;stroke:none"
       d="m -282.24368,372.35135 5.36082,0 0,33.62698 -5.36082,0 z"
       id="rect3787"
       inkscape:connector-curvature="0" />
    <path
       transform="matrix(-0.70710678,-0.70710678,0.70710678,-0.70710678,0,0)"
       style="fill:#ffffff;fill-opacity:1;stroke:none"
       d="m -391.84525,-296.37677 5.36083,0 0,33.62698 -5.36083,0 z"
       id="rect3791"
       inkscape:connector-curvature="0" />
  </g>
</svg>
