<?xml version="1.0" encoding="UTF-8" standalone="no"?>
<!-- Created with Inkscape (http://www.inkscape.org/) -->

<svg
   xmlns:dc="http://purl.org/dc/elements/1.1/"
   xmlns:cc="http://creativecommons.org/ns#"
   xmlns:rdf="http://www.w3.org/1999/02/22-rdf-syntax-ns#"
   xmlns:svg="http://www.w3.org/2000/svg"
   xmlns="http://www.w3.org/2000/svg"
   xmlns:sodipodi="http://sodipodi.sourceforge.net/DTD/sodipodi-0.dtd"
   xmlns:inkscape="http://www.inkscape.org/namespaces/inkscape"
   width="474"
   height="100"
   id="svg2"
   version="1.1"
   inkscape:version="0.48.2 r9819"
   sodipodi:docname="New document 1">
  <defs
     id="defs4" />
  <sodipodi:namedview
     id="base"
     pagecolor="#ffffff"
     bordercolor="#666666"
     borderopacity="1.0"
     inkscape:pageopacity="0.0"
     inkscape:pageshadow="2"
     inkscape:zoom="1"
     inkscape:cx="231.62554"
     inkscape:cy="108.29679"
     inkscape:document-units="px"
     inkscape:current-layer="layer1"
     showgrid="false"
     fit-margin-top="0"
     fit-margin-left="0"
     fit-margin-right="0"
     fit-margin-bottom="0"
     inkscape:window-width="1645"
     inkscape:window-height="1006"
     inkscape:window-x="35"
     inkscape:window-y="0"
     inkscape:window-maximized="1" />
  <metadata
     id="metadata7">
    <rdf:RDF>
      <cc:Work
         rdf:about="">
        <dc:format>image/svg+xml</dc:format>
        <dc:type
           rdf:resource="http://purl.org/dc/dcmitype/StillImage" />
        <dc:title></dc:title>
      </cc:Work>
    </rdf:RDF>
  </metadata>
  <g
     inkscape:label="Layer 1"
     inkscape:groupmode="layer"
     id="layer1"
     transform="translate(0,-621.36218)">
    <path
       style="fill:#4d4d4d;fill-opacity:1;stroke:none"
       d="m 0,343 0,94 445.34375,0 C 457.89738,437 468,426.89738 468,414.34375 l 0,-48.6875 C 468,353.10262 457.89738,343 445.34375,343 L 0,343 z"
       transform="translate(0,284.36218)"
       id="path3762"
       inkscape:connector-curvature="0" />
    <path
       style="fill:#ff8584;fill-opacity:1;stroke:none"
       d="m 0,337 0,94 451.34375,0 C 463.89738,431 474,420.89738 474,408.34375 l 0,-48.6875 C 474,347.10262 463.89738,337 451.34375,337 L 0,337 z"
       id="rect2989"
       transform="translate(0,284.36218)"
       inkscape:connector-curvature="0" />
    <g
       style="font-size:40px;font-style:normal;font-weight:normal;line-height:125%;letter-spacing:0px;word-spacing:0px;fill:#ffffff;fill-opacity:1;stroke:none;font-family:Sans"
       id="text2985">
      <path
         d="m 45.971411,669.46215 c 0,6.56 3.080005,9.64 8.24,9.64 3.239997,0 5.160001,-1.44 6.04,-2.16 0.4,-0.36 0.52,-0.64 0.52,-1 0,-0.64 -0.520001,-1.16 -1.16,-1.16 -0.28,0 -0.48,0.08 -0.76,0.28 -0.919999,0.68 -2.320002,1.72 -4.64,1.72 -3.679996,0 -5.64,-2.32 -5.64,-7.32 0,-4.91999 1.960004,-7.28 5.64,-7.28 2.639997,0 3.720001,1.2 4.32,1.88 0.28,0.32 0.560001,0.48 0.96,0.48 0.639999,0 1.16,-0.48 1.16,-1.16 0,-0.28 -0.08,-0.48 -0.28,-0.76 -0.639999,-0.88 -2.600003,-2.76 -6.16,-2.76 -5.159995,0 -8.24,3.04001 -8.24,9.6"
         style="font-variant:normal;font-stretch:normal;fill:#ffffff;font-family:Bariol;-inkscape-font-specification:Bariol"
         id="path3768" />
      <path
         d="m 65.717036,650.10215 c -0.679999,0 -1.28,0.6 -1.28,1.28 l 0,22.84 c 0,3.08 1.480003,4.68 4.16,4.68 0.639999,0 1.2,-0.52 1.2,-1.2 0,-0.68 -0.560001,-1.2 -1.2,-1.2 -1.079999,0 -1.6,-0.68 -1.6,-2.28 l 0,-22.84 c 0,-0.68 -0.560001,-1.28 -1.28,-1.28"
         style="font-variant:normal;font-stretch:normal;fill:#ffffff;font-family:Bariol;-inkscape-font-specification:Bariol"
         id="path3770" />
      <path
         d="m 75.707036,661.38215 c 0,-0.72 -0.560001,-1.28 -1.28,-1.28 -0.719999,0 -1.28,0.56 -1.28,1.28 l 0,16.24 c 0,0.72 0.560001,1.28 1.28,1.28 0.719999,0 1.28,-0.56 1.28,-1.28 l 0,-16.24 m -1.28,-5.04 c 0.959999,0 1.52,-0.56 1.52,-1.52 0,-1.16 -0.560001,-1.6 -1.52,-1.6 -0.959999,0 -1.52,0.44 -1.52,1.6 0,0.96 0.560001,1.52 1.52,1.52"
         style="font-variant:normal;font-stretch:normal;fill:#ffffff;font-family:Bariol;-inkscape-font-specification:Bariol"
         id="path3772" />
      <path
         d="m 79.721411,669.46215 c 0,6.56 3.080005,9.64 8.24,9.64 3.239997,0 5.160001,-1.44 6.04,-2.16 0.4,-0.36 0.52,-0.64 0.52,-1 0,-0.64 -0.520001,-1.16 -1.16,-1.16 -0.28,0 -0.48,0.08 -0.76,0.28 -0.919999,0.68 -2.320002,1.72 -4.64,1.72 -3.679996,0 -5.64,-2.32 -5.64,-7.32 0,-4.91999 1.960004,-7.28 5.64,-7.28 2.639997,0 3.720001,1.2 4.32,1.88 0.28,0.32 0.560001,0.48 0.96,0.48 0.639999,0 1.16,-0.48 1.16,-1.16 0,-0.28 -0.08,-0.48 -0.28,-0.76 -0.639999,-0.88 -2.600003,-2.76 -6.16,-2.76 -5.159995,0 -8.24,3.04001 -8.24,9.6"
         style="font-variant:normal;font-stretch:normal;fill:#ffffff;font-family:Bariol;-inkscape-font-specification:Bariol"
         id="path3774" />
      <path
         d="m 111.38704,678.90215 c 0.72,0 1.28,-0.56 1.28,-1.28 0,-0.24 -0.04,-0.52 -0.28,-0.8 l -7.12,-9.16 6.56,-5.24 c 0.4,-0.32 0.52,-0.72 0.52,-1.04 0,-0.72 -0.56,-1.28 -1.28,-1.28 -0.24,0 -0.56,0.04 -0.88,0.32 l -9.44,7.72 0,-16.76 c 0,-0.72 -0.56,-1.28 -1.280004,-1.28 -0.719999,0 -1.28,0.56 -1.28,1.28 l 0,26.24 c 0,0.72 0.560001,1.28 1.28,1.28 0.720004,0 1.280004,-0.56 1.280004,-1.28 l 0,-6.44 2.44,-1.96 7.08,9.08 c 0.32,0.4 0.68,0.6 1.12,0.6"
         style="font-variant:normal;font-stretch:normal;fill:#ffffff;font-family:Bariol;-inkscape-font-specification:Bariol"
         id="path3776" />
      <path
         d="m 132.52329,662.26215 c 2.91999,0 4.72,1.68001 4.72,4.4 l 0,1.08 -5.64,0 c -4.32,0 -7,2.12001 -7,5.64 0,3.68 2.68,5.72 6.92,5.72 2.39999,0 4.72,-1 5.72,-2.88 l 0,1.44 c 0,0.68 0.56,1.24 1.24,1.24 0.68,0 1.24,-0.56 1.24,-1.24 l 0,-11 c 0,-4.07999 -2.56001,-6.8 -7.2,-6.8 -3.36,0 -5.52,1.40001 -6.64,3.16 -0.12,0.2 -0.2,0.4 -0.2,0.68 0,0.64 0.52,1.16 1.16,1.16 0.36,0 0.64,-0.12 1.04,-0.56 1.23999,-1.4 2.52,-2.04 4.64,-2.04 m -0.76,14.52 c -3.12,0 -4.56,-1.32 -4.56,-3.4 0,-2.31999 1.8,-3.4 4.4,-3.4 l 5.64,0 0,1.68 c 0,3.4 -2.68001,5.12 -5.48,5.12"
         style="font-variant:normal;font-stretch:normal;fill:#ffffff;font-family:Bariol;-inkscape-font-specification:Bariol"
         id="path3778" />
      <path
         d="m 152.39516,659.86215 c -2.6,0 -4.56,1.28 -5.32,2.8 l 0,-1.28 c 0,-0.72 -0.56,-1.28 -1.28,-1.28 -0.72,0 -1.28,0.56 -1.28,1.28 l 0,16.24 c 0,0.72 0.56,1.28 1.28,1.28 0.72,0 1.28,-0.56 1.28,-1.28 l 0,-9.88 c 0,-3.19999 1.36001,-5.6 5.32,-5.6 3.88,0 4.8,2.16001 4.8,5.32 l 0,10.16 c 0,0.72 0.56,1.28 1.28,1.28 0.72,0 1.28,-0.56 1.28,-1.28 l 0,-10.68 c 0,-3.39999 -1.20001,-7.08 -7.36,-7.08"
         style="font-variant:normal;font-stretch:normal;fill:#ffffff;font-family:Bariol;-inkscape-font-specification:Bariol"
         id="path3780" />
      <path
         d="m 162.76829,684.22215 c -0.68,0 -1.2,0.52 -1.2,1.2 0,0.68 0.52,1.2 1.2,1.2 3.79999,0 5.84,-2 7.48,-5.92 l 7.88,-18.76 c 0.04,-0.12 0.12,-0.28 0.12,-0.56 0,-0.72 -0.56,-1.28 -1.28,-1.28 -0.72,0 -1.04,0.44 -1.2,0.84 l -5.64,13.8 -5.64,-13.8 c -0.16,-0.4 -0.48,-0.84 -1.2,-0.84 -0.72,0 -1.28,0.56 -1.28,1.28 0,0.28 0.08,0.44 0.12,0.56 l 6.68,15.88 c -1.64,4.04 -2.56001,6.4 -6.04,6.4"
         style="font-variant:normal;font-stretch:normal;fill:#ffffff;font-family:Bariol;-inkscape-font-specification:Bariol"
         id="path3782" />
      <path
         d="m 195.34829,677.98215 c 0.16,0.56 0.68,0.92 1.24,0.92 0.56,0 1,-0.32 1.2,-0.84 l 5.88,-16.12 c 0.08,-0.2 0.12,-0.4 0.12,-0.56 0,-0.72 -0.56,-1.28 -1.28,-1.28 -0.56,0 -1,0.32 -1.2,0.84 l -4.64,13.24 -3.8,-13.24 c -0.12,-0.4 -0.52,-0.84 -1.2,-0.84 -0.68,0 -1.08,0.44 -1.2,0.84 l -3.8,13.24 -4.64,-13.24 c -0.2,-0.52 -0.64,-0.84 -1.2,-0.84 -0.72,0 -1.28,0.56 -1.28,1.28 0,0.16 0.04,0.36 0.12,0.56 l 5.88,16.12 c 0.2,0.52 0.64,0.84 1.2,0.84 0.56,0 1.08,-0.36 1.24,-0.92 l 3.68,-12.68 3.68,12.68"
         style="font-variant:normal;font-stretch:normal;fill:#ffffff;font-family:Bariol;-inkscape-font-specification:Bariol"
         id="path3784" />
      <path
         d="m 214.97329,659.86215 c -2.6,0 -4.56,1.28 -5.32,2.8 l 0,-11.28 c 0,-0.72 -0.56,-1.28 -1.28,-1.28 -0.72,0 -1.28,0.56 -1.28,1.28 l 0,26.24 c 0,0.72 0.56,1.28 1.28,1.28 0.72,0 1.28,-0.56 1.28,-1.28 l 0,-9.88 c 0,-3.19999 1.36,-5.6 5.32,-5.6 3.87999,0 4.8,2.16001 4.8,5.32 l 0,10.16 c 0,0.72 0.56,1.28 1.28,1.28 0.72,0 1.28,-0.56 1.28,-1.28 l 0,-10.68 c 0,-3.39999 -1.20001,-7.08 -7.36,-7.08"
         style="font-variant:normal;font-stretch:normal;fill:#ffffff;font-family:Bariol;-inkscape-font-specification:Bariol"
         id="path3786" />
      <path
         d="m 225.97141,669.46215 c 0,6.72 3.32001,9.64 8.64,9.64 3.56,0 5.64,-1.64 6.24,-2.24 0.24,-0.24 0.44,-0.48 0.44,-0.92 0,-0.64 -0.52,-1.16 -1.16,-1.16 -0.32,0 -0.48,0.08 -0.72,0.24 -1.12,0.84 -2.48,1.72 -4.8,1.72 -3.76,0 -6.04,-2.56 -6.04,-6.52 l 11.68,0 c 1.6,0 1.6,-1.4 1.6,-2.56 0,-2.71999 -1.24001,-7.8 -7.64,-7.8 -5.19999,0 -8.24,3.44001 -8.24,9.6 m 13.36,-1.48 -10.76,0 c 0.24,-3.55999 2.16,-5.8 5.64,-5.8 4.12,0 5.12,2.92001 5.12,5.8"
         style="font-variant:normal;font-stretch:normal;fill:#ffffff;font-family:Bariol;-inkscape-font-specification:Bariol"
         id="path3788" />
      <path
         d="m 248.40329,661.38215 c 0,-0.72 -0.56,-1.28 -1.28,-1.28 -0.72,0 -1.28,0.56 -1.28,1.28 l 0,16.24 c 0,0.72 0.56,1.28 1.28,1.28 0.72,0 1.28,-0.56 1.28,-1.28 l 0,-8.96 c 0,-3.67999 1.88,-6.24 5.56,-6.24 0.68,0 1.24,-0.56 1.24,-1.24 0,-0.68 -0.56,-1.24 -1.24,-1.24 -2.76,0 -4.76,1.36001 -5.56,3.2 l 0,-1.76"
         style="font-variant:normal;font-stretch:normal;fill:#ffffff;font-family:Bariol;-inkscape-font-specification:Bariol"
         id="path3790" />
      <path
         d="m 256.59641,669.46215 c 0,6.72 3.32001,9.64 8.64,9.64 3.56,0 5.64,-1.64 6.24,-2.24 0.24,-0.24 0.44,-0.48 0.44,-0.92 0,-0.64 -0.52,-1.16 -1.16,-1.16 -0.32,0 -0.48,0.08 -0.72,0.24 -1.12,0.84 -2.48,1.72 -4.8,1.72 -3.76,0 -6.04,-2.56 -6.04,-6.52 l 11.68,0 c 1.6,0 1.6,-1.4 1.6,-2.56 0,-2.71999 -1.24001,-7.8 -7.64,-7.8 -5.19999,0 -8.24,3.44001 -8.24,9.6 m 13.36,-1.48 -10.76,0 c 0.24,-3.55999 2.16,-5.8 5.64,-5.8 4.12,0 5.12,2.92001 5.12,5.8"
         style="font-variant:normal;font-stretch:normal;fill:#ffffff;font-family:Bariol;-inkscape-font-specification:Bariol"
         id="path3792" />
      <path
         d="m 286.99954,660.42215 -1.56,0 c -0.68,0 -1.2,0.52 -1.2,1.2 0,0.68 0.52,1.2 1.2,1.2 l 1.56,0 0,11.04 c 0,2.92 1.72,5.04 4.88,5.04 0.68,0 1.24,-0.52 1.24,-1.2 0,-0.68 -0.56,-1.2 -1.24,-1.2 -1.36,0 -2.32,-0.92 -2.32,-2.64 l 0,-11.04 2.6,0 c 0.68,0 1.2,-0.52 1.2,-1.2 0,-0.68 -0.52,-1.2 -1.2,-1.2 l -2.6,0 0,-4.2 c 0,-0.68 -0.56,-1.28 -1.28,-1.28 -0.68,0 -1.28,0.6 -1.28,1.28 l 0,4.2"
         style="font-variant:normal;font-stretch:normal;fill:#ffffff;font-family:Bariol;-inkscape-font-specification:Bariol"
         id="path3794" />
      <path
         d="m 304.37141,659.86215 c -5.15999,0 -8.4,3.04001 -8.4,9.6 0,6.56 3.24001,9.64 8.4,9.64 5.2,0 8.4,-3.08 8.4,-9.64 0,-6.55999 -3.2,-9.6 -8.4,-9.6 m 0,16.92 c -3.68,0 -5.8,-2.2 -5.8,-7.32 0,-5.03999 2.12,-7.28 5.8,-7.28 3.68,0 5.8,2.24001 5.8,7.28 0,5.12 -2.12,7.32 -5.8,7.32"
         style="font-variant:normal;font-stretch:normal;fill:#ffffff;font-family:Bariol;-inkscape-font-specification:Bariol"
         id="path3796" />
      <path
         d="m 328.87204,665.70215 c 0,0 1.52,-3.52 5.28,-3.52 3.63999,0 5.64,2.36001 5.64,7.28 0,5 -1.96001,7.32 -5.64,7.32 -3.08,0 -5.28,-1.76 -5.28,-5.56 l 0,-5.52 m 5.44,-5.84 c -2.56,0 -4.52,1.32 -5.44,2.6 l 0,-11.08 c 0,-0.72 -0.56,-1.28 -1.28,-1.28 -0.72,0 -1.28,0.56 -1.28,1.28 l 0,19.84 c 0,5.28 3.28,7.88 7.84,7.88 5.15999,0 8.2,-3.08 8.2,-9.64 0,-6.55999 -2.88001,-9.6 -8.04,-9.6"
         style="font-variant:normal;font-stretch:normal;fill:#ffffff;font-family:Bariol;-inkscape-font-specification:Bariol"
         id="path3798" />
      <path
         d="m 345.19016,669.46215 c 0,6.72 3.32001,9.64 8.64,9.64 3.56,0 5.64,-1.64 6.24,-2.24 0.24,-0.24 0.44,-0.48 0.44,-0.92 0,-0.64 -0.52,-1.16 -1.16,-1.16 -0.32,0 -0.48,0.08 -0.72,0.24 -1.12,0.84 -2.48,1.72 -4.8,1.72 -3.76,0 -6.04,-2.56 -6.04,-6.52 l 11.68,0 c 1.6,0 1.6,-1.4 1.6,-2.56 0,-2.71999 -1.24001,-7.8 -7.64,-7.8 -5.19999,0 -8.24,3.44001 -8.24,9.6 m 13.36,-1.48 -10.76,0 c 0.24,-3.55999 2.16,-5.8 5.64,-5.8 4.12,0 5.12,2.92001 5.12,5.8"
         style="font-variant:normal;font-stretch:normal;fill:#ffffff;font-family:Bariol;-inkscape-font-specification:Bariol"
         id="path3800" />
      <path
         d="m 371.62204,659.86215 c -4.64,0 -7.36,2.64001 -7.36,6.72 0,1.72 0.48,3.16 1.44,4.36 -0.96,0.64 -1.6,1.6 -1.6,2.8 0,1.56 1,2.76 2.48,3.24 -1.88,0.76 -3.04,2.20001 -3.04,4.04 0,4.4 4.4,5.6 8.52,5.6 4.83999,0 8.6,-1.6 8.6,-5.76 0,-3.75999 -3.12001,-5.44 -7,-5.44 l -4.12,0 c -2.4,0 -2.96,-0.84 -2.96,-1.68 0,-0.64 0.28,-1.08 0.72,-1.44 1.12,0.64 2.6,1 4.32,1 4.63999,0 7.36,-2.64 7.36,-6.72 0,-1.71999 -0.52,-3.2 -1.44,-4.32 0.28,-0.64 0.72,-1.24 1.92,-1.24 0.64,0 1.16,-0.52 1.16,-1.16 0,-0.64 -0.52,-1.16 -1.16,-1.16 -2,0 -2.88,0.92 -3.56,2.16 -1.12,-0.64 -2.64001,-1 -4.28,-1 m 0,11.12 c -3.08,0 -4.76,-1.76 -4.76,-4.4 0,-2.63999 1.68,-4.4 4.76,-4.4 3.07999,0 4.76,1.76001 4.76,4.4 0,2.64 -1.68001,4.4 -4.76,4.4 m 6.44,9.88 c 0,2.6 -2.80001,3.52 -5.96,3.52 -3.16,0 -5.96,-0.92 -5.96,-3.36 0,-1.6 1.04,-2.8 3.36,-3.2 l 4.16,0 c 2.59999,0 4.4,0.84001 4.4,3.04"
         style="font-variant:normal;font-stretch:normal;fill:#ffffff;font-family:Bariol;-inkscape-font-specification:Bariol"
         id="path3802" />
      <path
         d="m 386.48829,661.38215 c 0,-0.72 -0.56,-1.28 -1.28,-1.28 -0.72,0 -1.28,0.56 -1.28,1.28 l 0,16.24 c 0,0.72 0.56,1.28 1.28,1.28 0.72,0 1.28,-0.56 1.28,-1.28 l 0,-16.24 m -1.28,-5.04 c 0.96,0 1.52,-0.56 1.52,-1.52 0,-1.16 -0.56,-1.6 -1.52,-1.6 -0.96,0 -1.52,0.44 -1.52,1.6 0,0.96 0.56,1.52 1.52,1.52"
         style="font-variant:normal;font-stretch:normal;fill:#ffffff;font-family:Bariol;-inkscape-font-specification:Bariol"
         id="path3804" />
      <path
         d="m 399.58266,659.86215 c -2.6,0 -4.56,1.28 -5.32,2.8 l 0,-1.28 c 0,-0.72 -0.56,-1.28 -1.28,-1.28 -0.72,0 -1.28,0.56 -1.28,1.28 l 0,16.24 c 0,0.72 0.56,1.28 1.28,1.28 0.72,0 1.28,-0.56 1.28,-1.28 l 0,-9.88 c 0,-3.19999 1.36001,-5.6 5.32,-5.6 3.88,0 4.8,2.16001 4.8,5.32 l 0,10.16 c 0,0.72 0.56,1.28 1.28,1.28 0.72,0 1.28,-0.56 1.28,-1.28 l 0,-10.68 c 0,-3.39999 -1.20001,-7.08 -7.36,-7.08"
         style="font-variant:normal;font-stretch:normal;fill:#ffffff;font-family:Bariol;-inkscape-font-specification:Bariol"
         id="path3806" />
    </g>
  </g>
</svg>
